<svg xmlns="http://www.w3.org/2000/svg" viewBox="0 0 387.1 725.53"><defs><style>.a,.k{fill:none;}.a,.i,.m{stroke:#000;}.a,.d,.g,.i,.m{stroke-miterlimit:10;}.a{stroke-width:2.74px;}.b,.f{fill:#231f20;}.c{fill:#fbb03b;}.d{fill:#f3ece2;stroke:#f2deb9;stroke-width:2.32px;}.e{fill:#8d6935;}.f,.j{font-size:159.06px;font-family:QuicksandBook-Regular, Quicksand;}.f{letter-spacing:-0.07em;}.g{fill:#fff;stroke:#fff;stroke-width:0.76px;letter-spacing:-0.09em;}.h{letter-spacing:-0.07em;}.i{fill:#fcfcfa;stroke-width:6.11px;}.k{letter-spacing:-0.02em;}.l{letter-spacing:0em;}.m{stroke-width:1.01px;}</style></defs><title>Asset 3</title><path class="a" d="M203.09,279.79c-5.26,5.08-5.43,9.64-10.15,15.33-7.21,8.7-5.34,12.68-11.36,22.2a20.41,20.41,0,0,1-12.77,8.94,11.64,11.64,0,0,1-6.89-.54c-5.79-2.6-7-5.35-11.38-9.88-2.43-2.5-5.84-3.82-9.19-4.89-5-1.62-10.33-2.26-15.43-3.73-12.26-3.51-17.17-11.33-20.12-20.06-3.18-9.44-2.28-15.81,5.56-24.73,4.16-4.74,5.14-11.32,7.46-17.15,1.06-2.67,2.52-5.33,4.91-7a14.3,14.3,0,0,1,6.49-2.16,30.16,30.16,0,0,1,15.06,2c7.2,3,13,8.63,20.23,11.53,10.62,4.27,17,3.52,28.31,5.43a20.3,20.3,0,0,1,8.77,3.27c5.92,4.37,6.67,13.71,2.2,19.51A16.13,16.13,0,0,1,203.09,279.79Z"/><path class="b" d="M4.5,296.29a3.6,3.6,0,0,1,5.25-.51c8.8,7.11,23.54,15.41,38.94,15.23,10.33,0,19.64-3,26.08-7.78,6.6-4.74,10.16-11,10.16-17.61,0-6.78-3.22-11.85-9.65-16.26-6.44-4.23-15.92-7.45-27.43-9.65h-.34c-11-2-20.66-5.08-27.94-10C12.29,245,7.38,237.87,7.38,229.06c0-9,4.91-16.76,12.36-22.18s17.44-8.63,28.61-8.63c15.58,0,27.27,7.62,36.58,13.71a3.78,3.78,0,0,1,1,5.25,3.59,3.59,0,0,1-5.08,1c-9.31-6.1-19.47-12.53-32.51-12.53-9.65,0-18.28,2.88-24.21,7.11-5.92,4.4-9.31,10.16-9.31,16.25.17,5.93,2.88,10.33,8.8,14.4s14.74,6.94,25.4,9h.34c11.85,2.2,22.35,5.59,30.14,10.84,7.79,5.08,13,12.87,13,22.35s-5.42,17.95-13.38,23.7-18.62,9.31-30.48,9.31c-18.11-.16-33.86-9.31-43.68-17.09A3.93,3.93,0,0,1,4.5,296.29Z"/><path class="b" d="M222.37,239.39a4.07,4.07,0,0,1,8.13,0V284.6a25.57,25.57,0,1,0,51.14,0V239.39a4.11,4.11,0,0,1,4.06-4.06,4,4,0,0,1,4.23,4.06V284.6a33.78,33.78,0,1,1-67.56,0Z"/><path class="b" d="M322.08,301.2a4,4,0,0,1,5.76-.51c5.76,4.23,14.9,9.65,25.4,9.65A25,25,0,0,0,369,305.26c4.06-2.71,6.26-6.43,6.26-10.16-.17-3.89-1.69-6.6-5.92-10.16-3.56-2.71-9.49-4.74-17.61-6.1l-.34-.16c-7.45-1.36-14.06-3.05-18.8-6.44a17.31,17.31,0,0,1-9-14.9c0-6.6,3.72-12.36,9-16.25,4.91-3.39,11.86-5.59,20.32-5.59,10.67,0,18.29,4.91,24.72,9a4.32,4.32,0,0,1,1.19,5.76,4.07,4.07,0,0,1-5.59,1.18c-6.1-4.06-12.19-8.29-20.32-8.29-6.77,0-12.19,1.86-15.75,4.74-3.38,2.71-5.25,6.09-5.25,9.48s1.53,5.76,4.74,8.3c3.73,2.54,9.32,4.57,16.94,5.76h.34a57.47,57.47,0,0,1,20.14,6.77,20.7,20.7,0,0,1,9.32,16.93c0,6.94-3.9,12.53-9.48,16.76a33.8,33.8,0,0,1-20.66,6.61c-13.38-.17-23.88-6.44-30.65-11.86A3.8,3.8,0,0,1,322.08,301.2Z"/><circle class="c" cx="146.85" cy="276.98" r="16.14"/><path class="d" d="M180.34,56.39c-2.4,2.44,2.41,6.06,3.3,10.7S184,73.79,181,74s-6.37-9.19-7-12.46c-2-9.73,1-12.5-2.55-15.56-4.57-3.92-14.09-1.93-18-1.46S142.1,46.66,138,50.73c-2.13,2.13,2.76,7,2.36,16.32s-2.12,13.62-6,13.66c-3.23,0-5.4-2.58-5.22-8,.15-4.28,6.38-12.31,3-16.35S118.74,57.75,114,64c-9.09,12.07-8.54,19.45-5.16,29.11,6.7,19.17,31,33.19,58,28.58,27.83-4.75,45-30.2,38.27-52.16C201.15,56.29,184.9,51.73,180.34,56.39Z"/><path class="b" d="M.79,100a3.69,3.69,0,0,1,5.36-.52c9,7.25,24,15.71,39.7,15.54,10.53,0,20-3.11,26.59-7.94,6.73-4.84,10.36-11.22,10.36-18,0-6.9-3.28-12.08-9.84-16.57-6.56-4.32-16.23-7.6-28-9.84h-.35C33.42,60.6,23.58,57.49,16.16,52.48,8.73,47.65,3.73,40.4,3.73,31.42c0-9.15,5-17.09,12.6-22.62S34.11,0,45.51,0C61.39,0,73.3,7.77,82.8,14a3.86,3.86,0,0,1,1,5.36,3.65,3.65,0,0,1-5.18,1C69.16,14.16,58.8,7.59,45.51,7.59c-9.84,0-18.65,2.94-24.69,7.26-6,4.49-9.5,10.36-9.5,16.57.18,6,2.94,10.53,9,14.67s15,7.08,25.9,9.16h.34c12.09,2.24,22.79,5.69,30.73,11,7.94,5.18,13.3,13.12,13.3,22.79S85,107.38,76.93,113.25s-19,9.5-31.08,9.5c-18.47-.18-34.53-9.5-44.54-17.44A4,4,0,0,1,.79,100Z"/><path class="b" d="M222.94,42a4.15,4.15,0,0,1,8.29,0v46.1a26.07,26.07,0,1,0,52.13,0V42a4.21,4.21,0,0,1,4.15-4.14A4.14,4.14,0,0,1,291.83,42v46.1a34.45,34.45,0,1,1-68.89,0Z"/><path class="b" d="M324.6,105a4.12,4.12,0,0,1,5.88-.52c5.87,4.31,15.19,9.84,25.89,9.84a25.58,25.58,0,0,0,16.06-5.18c4.14-2.76,6.38-6.56,6.38-10.36-.17-4-1.72-6.73-6-10.36-3.62-2.76-9.67-4.83-17.95-6.21l-.35-.18c-7.59-1.38-14.33-3.1-19.16-6.56a17.65,17.65,0,0,1-9.15-15.19c0-6.73,3.8-12.6,9.15-16.57,5-3.46,12.08-5.7,20.71-5.7,10.88,0,18.65,5,25.21,9.15A4.39,4.39,0,0,1,382.44,53a4.15,4.15,0,0,1-5.7,1.21c-6.21-4.14-12.43-8.46-20.72-8.46-6.9,0-12.43,1.9-16,4.83-3.45,2.77-5.35,6.22-5.35,9.67s1.55,5.87,4.83,8.46c3.8,2.59,9.5,4.66,17.27,5.87h.34a58.84,58.84,0,0,1,20.55,6.91,21.1,21.1,0,0,1,9.49,17.26c0,7.08-4,12.78-9.67,17.09a34.46,34.46,0,0,1-21.06,6.73c-13.64-.17-24.34-6.55-31.25-12.08A3.88,3.88,0,0,1,324.6,105Z"/><path class="e" d="M133.13,59.32C117.45,80.27,130,87,141.73,84.92c.93-7.42.35-14.86-1.86-24.14,0,0,3.73,19.11-5.49,19.93C122.35,81.78,133.13,59.32,133.13,59.32Z"/><path class="e" d="M180,59.32c6.76,3,13.17,14.63-2,20.87-4-6.78-5.27-12.11-4.57-22.28,0,0,2.58,17.16,7.63,16.07C188.85,72.29,180,59.32,180,59.32Z"/><text class="f" transform="translate(27.73 501.69)">S<tspan class="g" x="94.16" y="0">o</tspan><tspan class="h" x="179.1" y="0">us</tspan></text><path class="i" d="M202.2,469.41a31.92,31.92,0,1,1-63.83,0c0-17.63,14.29-50,31.92-50S202.2,451.78,202.2,469.41Z"/><text class="j" transform="translate(4.19 692.92)">S<tspan class="k" x="106.09" y="0">o</tspan><tspan class="l" x="202.96" y="0">us</tspan></text><path d="M157.89,622.12c18.25,0,33.11,14.65,33.11,32.66s-14.86,32.66-33.11,32.66a32.66,32.66,0,1,1,0-65.32m0-6.23a38.89,38.89,0,1,0,39.34,38.89,39.11,39.11,0,0,0-39.34-38.89Z"/><path class="m" d="M194.53,645.46c-.07-.14,1,2.15,3.8.71s3.39-5.59.61-11.3-6.18-7.49-8.72-6a3.17,3.17,0,0,0-1.76,3.72,50.62,50.62,0,0,0-5.69-7.12,6.38,6.38,0,0,0,2.34,1.22c2.29.15,4.92-1.72,8.8-1.35s7.61,6.45,8.75,8.83,2.49,8.68.7,12.2c-.79,1.53-5.43,4-6.18,5.42a10.68,10.68,0,0,0-.66,3.64C196.44,654.57,194.54,645.48,194.53,645.46Z"/><path class="m" d="M121.4,665.16c.08.14-1-2.12-3.82-.58s-3.21,5.69-.25,11.3,6.42,7.3,8.91,5.74a3.16,3.16,0,0,0,1.64-3.77,50.77,50.77,0,0,0,5.92,6.92,6.39,6.39,0,0,0-2.38-1.14c-2.3-.07-4.86,1.89-8.75,1.63s-7.81-6.2-9-8.53-2.77-8.6-1.09-12.17c.73-1.56,5.3-4.15,6-5.63a10.62,10.62,0,0,0,.54-3.65C119.2,656.11,121.39,665.14,121.4,665.16Z"/></svg>