<svg xmlns="http://www.w3.org/2000/svg" viewBox="0 0 387.1 693.67"><defs><style>.a{fill:#231f20;}.b{fill:#fbb03b;}.c{fill:#f3ece2;}.d{fill:#f2deb9;}.e{fill:#8d6935;}.f{fill:#fff;stroke:#fff;stroke-miterlimit:10;stroke-width:0.76px;}.g{fill:#fcfcfa;}.h{fill:none;}</style></defs><title>Asset 1</title><path d="M166,327.9a11.21,11.21,0,0,1-4.64-.93c-4.57-2.06-6.51-4.27-9-7.06-.85-1-1.73-2-2.83-3.11-2.08-2.14-4.95-3.37-8.63-4.55a81.36,81.36,0,0,0-8.25-2c-2.34-.49-4.77-1-7.13-1.68-13.72-3.93-18.45-13.26-21-21-3.5-10.37-2-17.19,5.82-26.06,2.75-3.13,4-7.14,5.37-11.39.57-1.77,1.15-3.6,1.85-5.36.9-2.29,2.45-5.57,5.4-7.61a15.34,15.34,0,0,1,7.1-2.39,31.53,31.53,0,0,1,15.75,2.12A60.19,60.19,0,0,1,156,242.74a55.74,55.74,0,0,0,10,5.68c7.07,2.84,12.3,3.42,18.36,4.08,3,.32,6,.66,9.66,1.27a21.3,21.3,0,0,1,9.36,3.52,14.1,14.1,0,0,1,5.47,9.57,15.92,15.92,0,0,1-3,11.88,19.26,19.26,0,0,1-1.84,2h0a26.56,26.56,0,0,0-5.39,7.8A37.52,37.52,0,0,1,194,296a32.15,32.15,0,0,0-6.28,11.47,48,48,0,0,1-5,10.58,21.87,21.87,0,0,1-13.67,9.55A16.77,16.77,0,0,1,166,327.9Zm-32.13-90.62a27.26,27.26,0,0,0-3.49.22,12.72,12.72,0,0,0-5.87,1.92c-1.78,1.23-3.19,3.25-4.42,6.37-.66,1.67-1.23,3.45-1.78,5.18-1.37,4.33-2.79,8.8-5.93,12.36-7.2,8.2-8.49,13.88-5.28,23.39,2.52,7.49,6.78,15.63,19.2,19.19,2.27.65,4.64,1.15,6.94,1.63a85.51,85.51,0,0,1,8.53,2.1c3.52,1.14,7.14,2.55,9.75,5.25,1.15,1.19,2.1,2.26,2.93,3.21,2.41,2.75,4,4.56,8,6.38a10.16,10.16,0,0,0,6.08.43,19,19,0,0,0,11.86-8.32,44.55,44.55,0,0,0,4.71-10,35.14,35.14,0,0,1,6.76-12.3,35.22,35.22,0,0,0,4.33-6.92,29.16,29.16,0,0,1,5.92-8.52h0a16.78,16.78,0,0,0,1.57-1.74,13.18,13.18,0,0,0,2.46-9.83,11.43,11.43,0,0,0-4.4-7.75,18.64,18.64,0,0,0-8.18-3c-3.56-.6-6.58-.93-9.5-1.25-6.27-.69-11.67-1.28-19.09-4.26A59.31,59.31,0,0,1,154.53,245a58.2,58.2,0,0,0-9.77-5.6A28.69,28.69,0,0,0,133.87,237.28Z"/><path class="a" d="M4.5,296.29a3.6,3.6,0,0,1,5.25-.51c8.8,7.11,23.54,15.41,38.94,15.23,10.33,0,19.64-3,26.08-7.78,6.6-4.74,10.16-11,10.16-17.61,0-6.78-3.22-11.85-9.65-16.26-6.44-4.23-15.92-7.45-27.43-9.65h-.34c-11-2-20.66-5.08-27.94-10C12.29,245,7.38,237.87,7.38,229.06c0-9,4.91-16.76,12.36-22.18s17.44-8.63,28.61-8.63c15.58,0,27.27,7.62,36.58,13.71a3.78,3.78,0,0,1,1,5.25,3.59,3.59,0,0,1-5.08,1c-9.31-6.1-19.47-12.53-32.51-12.53-9.65,0-18.28,2.88-24.21,7.11-5.92,4.4-9.31,10.16-9.31,16.25.17,5.93,2.88,10.33,8.8,14.4s14.74,6.94,25.4,9h.34c11.85,2.2,22.35,5.59,30.14,10.84,7.79,5.08,13,12.87,13,22.35s-5.42,17.95-13.38,23.7-18.62,9.31-30.48,9.31c-18.11-.16-33.86-9.31-43.68-17.09A3.93,3.93,0,0,1,4.5,296.29Z"/><path class="a" d="M222.37,239.39a4.07,4.07,0,0,1,8.13,0V284.6a25.57,25.57,0,1,0,51.14,0V239.39a4.11,4.11,0,0,1,4.06-4.06,4,4,0,0,1,4.23,4.06V284.6a33.78,33.78,0,1,1-67.56,0Z"/><path class="a" d="M322.08,301.2a4,4,0,0,1,5.76-.51c5.76,4.23,14.9,9.65,25.4,9.65A25,25,0,0,0,369,305.26c4.06-2.71,6.26-6.43,6.26-10.16-.17-3.89-1.69-6.6-5.92-10.16-3.56-2.71-9.49-4.74-17.61-6.1l-.34-.16c-7.45-1.36-14.06-3.05-18.8-6.44a17.31,17.31,0,0,1-9-14.9c0-6.6,3.72-12.36,9-16.25,4.91-3.39,11.86-5.59,20.32-5.59,10.67,0,18.29,4.91,24.72,9a4.32,4.32,0,0,1,1.19,5.76,4.07,4.07,0,0,1-5.59,1.18c-6.1-4.06-12.19-8.29-20.32-8.29-6.77,0-12.19,1.86-15.75,4.74-3.38,2.71-5.25,6.09-5.25,9.48s1.53,5.76,4.74,8.3c3.73,2.54,9.32,4.57,16.94,5.76h.34a57.47,57.47,0,0,1,20.14,6.77,20.7,20.7,0,0,1,9.32,16.93c0,6.94-3.9,12.53-9.48,16.76a33.8,33.8,0,0,1-20.66,6.61c-13.38-.17-23.88-6.44-30.65-11.86A3.8,3.8,0,0,1,322.08,301.2Z"/><circle class="b" cx="146.85" cy="276.98" r="16.14"/><path class="c" d="M180.34,56.39c-2.4,2.44,2.41,6.06,3.3,10.7S184,73.79,181,74s-6.37-9.19-7-12.46c-2-9.73,1-12.5-2.55-15.56-4.57-3.92-14.09-1.93-18-1.46S142.1,46.66,138,50.73c-2.13,2.13,2.76,7,2.36,16.32s-2.12,13.62-6,13.66c-3.23,0-5.4-2.58-5.22-8,.15-4.28,6.38-12.31,3-16.35S118.74,57.75,114,64c-9.09,12.07-8.54,19.45-5.16,29.11,6.7,19.17,31,33.19,58,28.58,27.83-4.75,45-30.2,38.27-52.16C201.15,56.29,184.9,51.73,180.34,56.39Z"/><path class="d" d="M156.8,123.71c-22.25,0-42.7-12.1-49-30.21-3.58-10.25-3.79-18.09,5.33-30.2,3.44-4.56,10.13-9.38,15.36-9.53A5.54,5.54,0,0,1,133,55.56c2.65,3.13.73,7.74-1,11.81a19.23,19.23,0,0,0-1.71,5.34c-.09,2.72.44,4.75,1.52,5.86a3.35,3.35,0,0,0,2.53,1c2,0,4.37-1.46,4.86-12.55a28.14,28.14,0,0,0-1.92-10.9c-.9-2.61-1.61-4.67-.1-6.19,5-5,14.22-6.35,16-6.56l1.68-.23c4.81-.68,12.86-1.82,17.27,2,2.4,2.06,2.32,4.12,2.22,7a34.51,34.51,0,0,0,.7,9.23c.94,4.51,4.26,11.55,5.82,11.55h0c1-.06,1.35-.36,1.52-.58.53-.69.54-2.3,0-4.93a16,16,0,0,0-2.16-4.82c-1.41-2.38-2.87-4.84-.83-6.92l.83.82-.83-.82c2-2.08,5.92-2.67,10.37-1.58,5.87,1.43,13.69,6.28,16.42,15.2,3.08,10.12,1.42,21.14-4.68,31-7.33,11.89-19.92,20.14-34.52,22.64A62,62,0,0,1,156.8,123.71ZM128.7,56.09h-.17c-3.93.11-10.14,4.06-13.57,8.61-8.54,11.34-8.39,18.33-5,28,6.08,17.4,29,32.56,56.75,27.82,13.95-2.38,25.95-10.24,32.94-21.57,5.74-9.3,7.31-19.64,4.42-29.11-2.43-8-9.46-12.34-14.74-13.63-3.6-.88-6.72-.51-8.16,1-.72.73-.19,1.81,1.17,4.11a17.76,17.76,0,0,1,2.44,5.56c.67,3.46.52,5.49-.49,6.79a4.09,4.09,0,0,1-3.2,1.48c-4.86.29-8.24-13.24-8.27-13.38a37,37,0,0,1-.75-9.79c.1-2.69.14-3.8-1.41-5.12-3.61-3.1-11.3-2-15.43-1.43l-1.74.24c-1.65.19-10.14,1.4-14.64,5.89-.46.47,0,1.75.65,3.8a29.9,29.9,0,0,1,2.05,11.75c-.32,7.27-1.42,14.72-7.16,14.77a5.68,5.68,0,0,1-4.21-1.68c-1.56-1.6-2.29-4.14-2.18-7.56.06-1.75.95-3.89,1.89-6.15,1.43-3.45,3.06-7.37,1.33-9.41A3.13,3.13,0,0,0,128.7,56.09Z"/><path class="a" d="M.79,100a3.69,3.69,0,0,1,5.36-.52c9,7.25,24,15.71,39.7,15.54,10.53,0,20-3.11,26.59-7.94,6.73-4.84,10.36-11.22,10.36-18,0-6.9-3.28-12.08-9.84-16.57-6.56-4.32-16.23-7.6-28-9.84h-.35C33.42,60.6,23.58,57.49,16.16,52.48,8.73,47.65,3.73,40.4,3.73,31.42c0-9.15,5-17.09,12.6-22.62S34.11,0,45.51,0C61.39,0,73.3,7.77,82.8,14a3.86,3.86,0,0,1,1,5.36,3.65,3.65,0,0,1-5.18,1C69.16,14.16,58.8,7.59,45.51,7.59c-9.84,0-18.65,2.94-24.69,7.26-6,4.49-9.5,10.36-9.5,16.57.18,6,2.94,10.53,9,14.67s15,7.08,25.9,9.16h.34c12.09,2.24,22.79,5.69,30.73,11,7.94,5.18,13.3,13.12,13.3,22.79S85,107.38,76.93,113.25s-19,9.5-31.08,9.5c-18.47-.18-34.53-9.5-44.54-17.44A4,4,0,0,1,.79,100Z"/><path class="a" d="M222.94,42a4.15,4.15,0,0,1,8.29,0v46.1a26.07,26.07,0,1,0,52.13,0V42a4.21,4.21,0,0,1,4.15-4.14A4.14,4.14,0,0,1,291.83,42v46.1a34.45,34.45,0,1,1-68.89,0Z"/><path class="a" d="M324.6,105a4.12,4.12,0,0,1,5.88-.52c5.87,4.31,15.19,9.84,25.89,9.84a25.58,25.58,0,0,0,16.06-5.18c4.14-2.76,6.38-6.56,6.38-10.36-.17-4-1.72-6.73-6-10.36-3.62-2.76-9.67-4.83-17.95-6.21l-.35-.18c-7.59-1.38-14.33-3.1-19.16-6.56a17.65,17.65,0,0,1-9.15-15.19c0-6.73,3.8-12.6,9.15-16.57,5-3.46,12.08-5.7,20.71-5.7,10.88,0,18.65,5,25.21,9.15A4.39,4.39,0,0,1,382.44,53a4.15,4.15,0,0,1-5.7,1.21c-6.21-4.14-12.43-8.46-20.72-8.46-6.9,0-12.43,1.9-16,4.83-3.45,2.77-5.35,6.22-5.35,9.67s1.55,5.87,4.83,8.46c3.8,2.59,9.5,4.66,17.27,5.87h.34a58.84,58.84,0,0,1,20.55,6.91,21.1,21.1,0,0,1,9.49,17.26c0,7.08-4,12.78-9.67,17.09a34.46,34.46,0,0,1-21.06,6.73c-13.64-.17-24.34-6.55-31.25-12.08A3.88,3.88,0,0,1,324.6,105Z"/><path class="e" d="M133.13,59.32C117.45,80.27,130,87,141.73,84.92c.93-7.42.35-14.86-1.86-24.14,0,0,3.73,19.11-5.49,19.93C122.35,81.78,133.13,59.32,133.13,59.32Z"/><path class="e" d="M180,59.32c6.76,3,13.17,14.63-2,20.87-4-6.78-5.27-12.11-4.57-22.28,0,0,2.58,17.16,7.63,16.07C188.85,72.29,180,59.32,180,59.32Z"/><path class="a" d="M39.18,480.85a3.38,3.38,0,0,1,4.93-.47c8.27,6.68,22.11,14.47,36.59,14.31,9.7,0,18.45-2.86,24.49-7.32,6.2-4.45,9.54-10.33,9.54-16.54s-3-11.13-9.06-15.27c-6-4-15-7-25.77-9.06h-.32c-10.34-1.91-19.4-4.77-26.24-9.39-6.84-4.45-11.45-11.13-11.45-19.4,0-8.43,4.61-15.75,11.61-20.84s16.38-8.11,26.88-8.11c14.63,0,25.61,7.16,34.35,12.88a3.55,3.55,0,0,1,1,4.93,3.37,3.37,0,0,1-4.77,1c-8.75-5.73-18.3-11.77-30.54-11.77-9.07,0-17.18,2.7-22.75,6.68s-8.75,9.54-8.75,15.27c.16,5.56,2.71,9.7,8.27,13.52S71,437.75,81,439.66h.32c11.14,2.07,21,5.25,28.31,10.18,7.32,4.77,12.25,12.09,12.25,21s-5.09,16.86-12.56,22.27a48.94,48.94,0,0,1-28.63,8.75c-17-.16-31.82-8.75-41-16.07A3.69,3.69,0,0,1,39.18,480.85Z"/><path class="f" d="M169.93,423.75c20.52,0,36.9,17.82,36.9,39s-16.38,39-36.9,39c-20.36,0-36.9-17.81-36.9-39S149.57,423.75,169.93,423.75Zm0,70.31c15.9,0,29.26-14,29.26-31.34s-13.36-31.49-29.26-31.49-29.27,14.15-29.27,31.49S154,494.06,169.93,494.06Z"/><path class="a" d="M220,427.41a3.82,3.82,0,1,1,7.63,0v42.47a24,24,0,1,0,48,0V427.41a3.86,3.86,0,0,1,3.81-3.82,3.81,3.81,0,0,1,4,3.82v42.47a31.73,31.73,0,1,1-63.46,0Z"/><path class="a" d="M301.79,485.47a3.79,3.79,0,0,1,5.41-.48c5.41,4,14,9.07,23.86,9.07a23.47,23.47,0,0,0,14.79-4.78c3.82-2.54,5.89-6,5.89-9.54-.16-3.66-1.59-6.2-5.57-9.54-3.34-2.55-8.91-4.46-16.54-5.73l-.32-.16c-7-1.27-13.2-2.86-17.66-6a16.29,16.29,0,0,1-8.43-14c0-6.2,3.5-11.61,8.43-15.27,4.62-3.18,11.14-5.25,19.09-5.25,10,0,17.18,4.61,23.22,8.43a4.05,4.05,0,0,1,1.12,5.41,3.82,3.82,0,0,1-5.25,1.11c-5.73-3.81-11.45-7.79-19.09-7.79-6.36,0-11.45,1.75-14.79,4.45-3.18,2.55-4.93,5.73-4.93,8.91s1.43,5.41,4.45,7.79c3.5,2.39,8.75,4.3,15.91,5.41h.32a54.3,54.3,0,0,1,18.92,6.36,19.46,19.46,0,0,1,8.75,15.91c0,6.52-3.66,11.77-8.91,15.75a31.8,31.8,0,0,1-19.4,6.2c-12.57-.16-22.43-6-28.79-11.13A3.58,3.58,0,0,1,301.79,485.47Z"/><path class="g" d="M202.2,469.41a31.92,31.92,0,1,1-63.83,0c0-17.63,14.29-50,31.92-50S202.2,451.78,202.2,469.41Z"/><path d="M170.29,504.38a35,35,0,0,1-35-35c0-18.14,14.77-53,35-53s35,34.86,35,53A35,35,0,0,1,170.29,504.38Zm0-81.86c-14.89,0-28.86,29.25-28.86,46.89a28.86,28.86,0,0,0,57.72,0C199.15,451.77,185.17,422.52,170.29,422.52Z"/><path d="M15.64,672.08a3.39,3.39,0,0,1,4.93-.48c8.27,6.68,22.11,14.48,36.58,14.32,9.71,0,18.46-2.86,24.5-7.32,6.2-4.45,9.54-10.34,9.54-16.54,0-6.36-3-11.13-9.06-15.27-6-4-14.95-7-25.77-9.07H56c-10.34-1.9-19.4-4.77-26.24-9.38-6.84-4.45-11.46-11.13-11.46-19.4,0-8.43,4.62-15.75,11.62-20.84S46.34,580,56.84,580c14.63,0,25.6,7.15,34.35,12.88a3.55,3.55,0,0,1,1,4.93,3.37,3.37,0,0,1-4.77,1C78.63,593,69.08,587,56.84,587c-9.07,0-17.18,2.7-22.75,6.68-5.57,4.13-8.75,9.54-8.75,15.27.16,5.56,2.71,9.7,8.27,13.52s13.84,6.52,23.86,8.43h.32c11.13,2.06,21,5.25,28.31,10.18,7.32,4.77,12.25,12.08,12.25,21s-5.09,16.86-12.56,22.27a49,49,0,0,1-28.64,8.75c-17-.16-31.81-8.75-41-16.07A3.69,3.69,0,0,1,15.64,672.08Z"/><path class="h" d="M158.32,615c20.52,0,36.9,17.81,36.9,39s-16.38,39-36.9,39c-20.36,0-36.9-17.82-36.9-39S138,615,158.32,615Zm0,70.3c15.9,0,29.26-14,29.26-31.33s-13.36-31.49-29.26-31.49S129.05,636.61,129.05,654,142.41,685.28,158.32,685.28Z"/><path d="M220.35,618.64a3.82,3.82,0,0,1,7.64,0v42.47a24,24,0,1,0,48,0V618.64a3.87,3.87,0,0,1,3.82-3.82,3.81,3.81,0,0,1,4,3.82v42.47a31.74,31.74,0,1,1-63.47,0Z"/><path d="M314,676.69a3.79,3.79,0,0,1,5.41-.47c5.41,4,14,9.06,23.86,9.06a23.53,23.53,0,0,0,14.79-4.77c3.82-2.54,5.89-6,5.89-9.54-.16-3.66-1.6-6.21-5.57-9.54-3.34-2.55-8.91-4.46-16.54-5.73l-.32-.16c-7-1.27-13.2-2.86-17.66-6a16.29,16.29,0,0,1-8.43-14c0-6.2,3.5-11.61,8.43-15.27C328.52,617.05,335,615,343,615c10,0,17.18,4.61,23.22,8.43a4.05,4.05,0,0,1,1.12,5.41,3.82,3.82,0,0,1-5.25,1.11c-5.73-3.82-11.46-7.79-19.09-7.79-6.36,0-11.45,1.75-14.79,4.45-3.18,2.55-4.93,5.73-4.93,8.91s1.43,5.41,4.45,7.79c3.5,2.39,8.75,4.3,15.91,5.41h.31a54.15,54.15,0,0,1,18.93,6.36A19.46,19.46,0,0,1,371.62,671c0,6.52-3.66,11.77-8.91,15.75a31.82,31.82,0,0,1-19.4,6.2c-12.57-.16-22.43-6-28.79-11.14A3.58,3.58,0,0,1,314,676.69Z"/><path d="M157.89,622.12a32.66,32.66,0,1,1-33.11,32.66,32.92,32.92,0,0,1,33.11-32.66m0-6.23a38.89,38.89,0,1,0,39.34,38.89,39.11,39.11,0,0,0-39.34-38.89Z"/><path d="M194.53,645.46c-.07-.14,1,2.15,3.8.71s3.39-5.59.62-11.3-6.19-7.49-8.73-6a3.17,3.17,0,0,0-1.76,3.72,50.62,50.62,0,0,0-5.69-7.12,6.38,6.38,0,0,0,2.34,1.22c2.3.15,4.92-1.72,8.8-1.35s7.61,6.45,8.75,8.83,2.49,8.68.7,12.2c-.78,1.53-5.43,4-6.18,5.42a10.68,10.68,0,0,0-.66,3.64C196.44,654.57,194.54,645.48,194.53,645.46Z"/><path d="M196,655.46c-.07-.74-1.87-9.38-2-9.88l.44-.11.49-.24c.09.16.93,1.61,3.13.49,2.71-1.38,2.86-5.55.39-10.63-1.63-3.35-3.56-5.51-5.45-6.08a3.09,3.09,0,0,0-2.57.28c-2.15,1.25-1.56,3-1.53,3.11l1.33,3.81L188,632.85a50.75,50.75,0,0,0-5.63-7.05l.67-.74a5.73,5.73,0,0,0,2.06,1.11,9.16,9.16,0,0,0,3-.56,14.87,14.87,0,0,1,5.82-.79c5,.49,9.11,9,9.16,9.11,1.17,2.44,2.62,8.85.69,12.65a12.27,12.27,0,0,1-3.32,3,12.57,12.57,0,0,0-2.86,2.45,9.79,9.79,0,0,0-.61,3.43Zm-.67-8.58c.31,1.46.75,3.62,1.1,5.41a4.56,4.56,0,0,1,.28-.75,12,12,0,0,1,3.16-2.81,12.4,12.4,0,0,0,3-2.61c1.69-3.32.46-9.32-.7-11.75-1.51-3.14-5.1-8.23-8.35-8.54a13.76,13.76,0,0,0-5.44.75,10,10,0,0,1-3.34.59H185c1,1.2,2,2.46,2.93,3.75a4.34,4.34,0,0,1,5.39-2.88c2.19.67,4.29,3,6.07,6.61,2.73,5.62,2.4,10.31-.84,12a3.76,3.76,0,0,1-2.88.39A2.52,2.52,0,0,1,195.35,646.88Z"/><path d="M121.41,665.16c.07.14-1-2.12-3.83-.58s-3.21,5.69-.25,11.3,6.42,7.3,8.91,5.74a3.16,3.16,0,0,0,1.64-3.77,50.77,50.77,0,0,0,5.92,6.92,6.39,6.39,0,0,0-2.38-1.14c-2.3-.07-4.86,1.89-8.75,1.63s-7.81-6.2-9-8.53-2.77-8.6-1.09-12.17c.73-1.56,5.3-4.15,6-5.63a10.62,10.62,0,0,0,.54-3.65C119.2,656.11,121.4,665.14,121.41,665.16Z"/><path d="M123.37,685.79l-.73,0c-5-.32-9.4-8.73-9.45-8.81-1.25-2.4-2.91-8.77-1.1-12.62.43-.9,1.79-2,3.23-3.08a12.3,12.3,0,0,0,2.77-2.54,9.77,9.77,0,0,0,.5-3.45l1,0c.1.74,2.17,9.31,2.3,9.8l-.43.12-.49.27c-.1-.17-1-1.59-3.14-.39-2.66,1.46-2.68,5.64,0,10.63,1.73,3.29,3.74,5.39,5.64,5.91a3.15,3.15,0,0,0,2.56-.37c2.11-1.32,1.46-3.09,1.43-3.16L126,674.27l2.33,3.29a51,51,0,0,0,5.86,6.85l-.65.77a5.68,5.68,0,0,0-2.09-1,9.63,9.63,0,0,0-3,.65A15.66,15.66,0,0,1,123.37,685.79Zm-4.11-27.39a3.85,3.85,0,0,1-.26.75,11.67,11.67,0,0,1-3.06,2.91,12.41,12.41,0,0,0-2.93,2.71c-1.59,3.37-.17,9.33,1.08,11.72,1.6,3.09,5.36,8.06,8.61,8.27a13.85,13.85,0,0,0,5.42-.93,9.89,9.89,0,0,1,3.32-.7h.07q-1.62-1.77-3.06-3.66a4,4,0,0,1-1.94,2.57,4.14,4.14,0,0,1-3.35.48c-2.21-.6-4.38-2.81-6.28-6.41-2.91-5.53-2.73-10.23.46-12a3.52,3.52,0,0,1,3.2-.36C120.18,662.32,119.67,660.17,119.26,658.4Z"/></svg>