<svg xmlns="http://www.w3.org/2000/svg" viewBox="0 0 486.03 486.03"><defs><style>.a{fill:#dcedc8;}.b,.d,.e,.f,.g,.h{fill:none;}.b,.d,.e,.f,.g{stroke:#689f38;}.b,.d,.e,.f,.g,.i{stroke-miterlimit:10;}.b{stroke-width:0.69px;}.b,.c{opacity:0.5;}.d{stroke-width:0.59px;}.e,.f{stroke-linecap:round;}.e,.g{stroke-width:0.69px;}.f{stroke-width:0.23px;}.i{stroke:#000;stroke-width:0.95px;}</style></defs><title>Asset 3</title><rect class="a" width="486.03" height="486.03"/><path class="b" d="M97.36,141.05c-.46.71.83,1.37,1.25,2.47s.38,1.63-.31,1.82-1.92-2-2.22-2.74c-.91-2.3-.32-3.12-1.29-3.7-1.26-.76-3.41.17-4.33.47a6.74,6.74,0,0,0-3.33,2.24c-.41.62,1,1.59,1.28,3.9s.1,3.45-.82,3.64c-.76.15-1.38-.39-1.58-1.74-.16-1.06.95-3.32,0-4.15s-3.09,1-3.93,2.72c-1.61,3.39-1.15,5.18.08,7.39,2.43,4.4,8.79,6.72,15,4.34,6.36-2.45,9.27-9.49,6.72-14.58C102.26,140.06,98.23,139.69,97.36,141.05Z"/><g class="c"><path class="d" d="M44.32,152.05c-.49,3.64-4.18,8.14-8,10.2-3.34,1.79-7,1.49-8.25-1.86-.68-1.79-.2-4.39-1.8-7s-12.29-7-8.51-11.6c4-4.86,14.92-3.45,19.49-.77C44.14,145.12,44.81,148.46,44.32,152.05Z"/><path class="d" d="M42.85,151.87c-.44,3.23-3.71,7.23-7.11,9-3,1.59-5.91,1.3-7-1.67-.6-1.59-.1-4-1.52-6.26s-11.16-6.48-7.8-10.55c3.55-4.31,13.13-2.69,17.18-.31C42.69,145.72,43.29,148.69,42.85,151.87Z"/><path class="d" d="M33,148.92a3.18,3.18,0,0,1,3.82,1,3,3,0,0,1,0,3.84,3.05,3.05,0,0,1-2.35.91,4,4,0,0,1-2.35-1,2.71,2.71,0,0,1-1-1.51A3.39,3.39,0,0,1,33,148.92Z"/></g><g class="c"><path class="e" d="M25.34,207.32l-.84.4c-4.43,1.84-7.56,6.16-7.56,10.06,0,5.1,5.39,8.6,12,8.6s12-3.5,12-8.6c0-4.48-4-8-8.26-10a5.08,5.08,0,0,1-1.64-1.26,3.9,3.9,0,0,1-.73-1.62,3.63,3.63,0,0,1,1-3.35,4.8,4.8,0,0,0-1.57,1.11,8,8,0,0,0-1.26,2.13,4.46,4.46,0,0,0-1.32-2.07,2.91,2.91,0,0,0-1.61-.6,4.45,4.45,0,0,1,1.18,3A2.77,2.77,0,0,1,25.34,207.32Z"/><path class="f" d="M26,209.25a11.29,11.29,0,0,0-3.91,5.31,9,9,0,0,0,.26,6.54,7.47,7.47,0,0,0,4.93,4.18"/><path class="f" d="M22.56,210.73a8.88,8.88,0,0,0,.56,13.84"/><path class="f" d="M30.26,207.68a12.76,12.76,0,0,1-.44,17.6"/><path class="f" d="M34.28,210.56A9.35,9.35,0,0,1,32.37,224"/><path class="f" d="M39,215.73a6.09,6.09,0,0,1-2.74,5.91"/><path class="f" d="M27.87,209.57a27.63,27.63,0,0,0-2.05,6.84,9.33,9.33,0,0,0,1.57,6.8"/><path class="f" d="M29.63,210.76a15.55,15.55,0,0,1,.06,12.94"/></g><g class="c"><path class="g" d="M103.42,213.12c-1.49,1.44-1.54,2.74-2.88,4.35-2,2.47-1.51,3.6-3.22,6.3a5.82,5.82,0,0,1-3.63,2.54,3.32,3.32,0,0,1-2-.15c-1.64-.74-2-1.53-3.23-2.81A6.22,6.22,0,0,0,85.9,222c-1.43-.46-2.93-.64-4.38-1.05a8,8,0,0,1-5.71-5.7c-.9-2.68-.65-4.49,1.58-7,1.18-1.34,1.46-3.21,2.12-4.86a4.2,4.2,0,0,1,1.39-2,4.1,4.1,0,0,1,1.84-.61,8.65,8.65,0,0,1,4.27.58c2,.84,3.69,2.45,5.75,3.27,3,1.21,4.82,1,8,1.54a5.79,5.79,0,0,1,2.49.93,4,4,0,0,1,.62,5.53A3.5,3.5,0,0,1,103.42,213.12Z"/><circle class="g" cx="87.46" cy="212.32" r="4.58"/></g><path class="b" d="M24.31,19.38c.46.71-.84,1.38-1.25,2.48s-.38,1.63.31,1.81,1.91-2,2.22-2.73c.91-2.3.31-3.12,1.29-3.71,1.25-.75,3.41.18,4.32.48A6.76,6.76,0,0,1,34.54,20c.41.62-1,1.58-1.28,3.9s-.11,3.44.81,3.63c.76.16,1.39-.38,1.59-1.73.15-1.06-1-3.32,0-4.16s3.09,1,3.92,2.73c1.61,3.38,1.15,5.17-.07,7.39-2.43,4.4-8.8,6.72-15,4.34-6.35-2.45-9.27-9.5-6.71-14.59C19.41,18.4,23.44,18,24.31,19.38Z"/><g class="c"><path class="d" d="M77.34,30.39c.5,3.63,4.19,8.14,8,10.2,3.34,1.79,7,1.49,8.25-1.86.67-1.8.19-4.4,1.79-7s12.3-7,8.51-11.6c-4-4.86-14.91-3.45-19.48-.76C77.53,23.45,76.85,26.8,77.34,30.39Z"/><path class="d" d="M78.81,30.21c.44,3.22,3.71,7.22,7.11,9,3,1.59,5.91,1.3,7-1.67.6-1.6.11-4,1.53-6.27s11.15-6.47,7.8-10.54c-3.56-4.31-13.13-2.7-17.18-.32C79,24.06,78.38,27,78.81,30.21Z"/><path class="d" d="M88.65,27.26a3.18,3.18,0,0,0-3.82,1,3,3,0,0,0,0,3.83,3,3,0,0,0,2.35.91,3.93,3.93,0,0,0,2.36-1,2.71,2.71,0,0,0,1-1.51A3.35,3.35,0,0,0,88.65,27.26Z"/></g><g class="c"><path class="e" d="M96.33,85.65l.83.41c4.43,1.83,7.56,6.16,7.56,10,0,5.11-5.38,8.61-12,8.61s-12-3.5-12-8.61c0-4.48,4-8,8.25-10a5.25,5.25,0,0,0,1.65-1.25,4,4,0,0,0,.73-1.62,3.62,3.62,0,0,0-1-3.35A4.76,4.76,0,0,1,91.91,81a7.63,7.63,0,0,1,1.26,2.13,4.49,4.49,0,0,1,1.32-2.07,3,3,0,0,1,1.61-.61,4.46,4.46,0,0,0-1.17,3A2.77,2.77,0,0,0,96.33,85.65Z"/><path class="f" d="M95.71,87.58a11.37,11.37,0,0,1,3.9,5.32,9,9,0,0,1-.25,6.53,7.54,7.54,0,0,1-4.93,4.19"/><path class="f" d="M99.11,89.07a8.87,8.87,0,0,1-.57,13.84"/><path class="f" d="M91.41,86a12.75,12.75,0,0,0,.43,17.6"/><path class="f" d="M87.38,88.89a9.38,9.38,0,0,0,1.91,13.42"/><path class="f" d="M82.64,94.07A6.06,6.06,0,0,0,85.38,100"/><path class="f" d="M93.8,87.91a27.6,27.6,0,0,1,2,6.84,9.25,9.25,0,0,1-1.57,6.8"/><path class="f" d="M92,89.09A15.47,15.47,0,0,0,92,102"/></g><g class="c"><path class="g" d="M18.24,91.46c1.5,1.44,1.54,2.73,2.88,4.35,2.05,2.46,1.52,3.59,3.23,6.3A5.77,5.77,0,0,0,28,104.64a3.36,3.36,0,0,0,2-.15c1.64-.74,2-1.52,3.23-2.8a6.07,6.07,0,0,1,2.6-1.39c1.43-.46,2.94-.64,4.38-1.06a8,8,0,0,0,5.71-5.69c.91-2.68.65-4.49-1.57-7-1.19-1.35-1.46-3.21-2.12-4.87a4.19,4.19,0,0,0-1.4-2,4.06,4.06,0,0,0-1.84-.61,8.53,8.53,0,0,0-4.27.57c-2,.84-3.69,2.45-5.74,3.27-3,1.21-4.83,1-8,1.54a5.7,5.7,0,0,0-2.49.93,4,4,0,0,0-.63,5.54A6.17,6.17,0,0,0,18.24,91.46Z"/><circle class="g" cx="34.2" cy="90.66" r="4.58"/></g><path class="b" d="M210.05,87.1c.45.71-.84,1.38-1.26,2.48s-.37,1.63.32,1.81,1.91-2,2.22-2.73c.91-2.3.31-3.12,1.28-3.71,1.26-.75,3.41.18,4.33.48a6.7,6.7,0,0,1,3.34,2.24c.4.62-1,1.58-1.28,3.9s-.11,3.44.81,3.63c.76.16,1.39-.38,1.59-1.73.15-1.06-1-3.32,0-4.16s3.09,1,3.92,2.72c1.61,3.39,1.15,5.18-.07,7.4-2.43,4.4-8.8,6.72-15,4.34-6.36-2.45-9.27-9.5-6.72-14.59C205.14,86.11,209.18,85.74,210.05,87.1Z"/><g class="c"><path class="d" d="M166,91.28c-.5-3.64-4.19-8.15-8-10.2-3.34-1.8-7-1.49-8.25,1.86-.67,1.79-.19,4.39-1.79,7s-12.3,7-8.51,11.6c4,4.86,14.91,3.45,19.48.77C165.8,98.21,166.48,94.87,166,91.28Z"/><path class="d" d="M164.52,91.46c-.44-3.23-3.71-7.23-7.11-9-3-1.59-5.92-1.3-7,1.67-.6,1.59-.11,4-1.53,6.26s-11.15,6.48-7.8,10.55c3.56,4.31,13.13,2.69,17.18.31C164.35,97.61,165,94.64,164.52,91.46Z"/><path class="d" d="M154.67,94.41a3.19,3.19,0,0,0,3.83-1,3,3,0,0,0,0-3.84,3.07,3.07,0,0,0-2.35-.91,4,4,0,0,0-2.36,1,2.74,2.74,0,0,0-1,1.51A3.36,3.36,0,0,0,154.67,94.41Z"/></g><g class="c"><path class="e" d="M147,22.72l-.83.4c-4.43,1.84-7.56,6.17-7.56,10.06,0,5.11,5.38,8.61,12,8.61s12-3.5,12-8.61c0-4.48-4-8-8.25-10a5.25,5.25,0,0,1-1.65-1.25A4.09,4.09,0,0,1,152,20.3a3.64,3.64,0,0,1,1-3.36,4.83,4.83,0,0,0-1.56,1.12,7.72,7.72,0,0,0-1.26,2.12,4.53,4.53,0,0,0-1.32-2.06,3.05,3.05,0,0,0-1.61-.61,4.46,4.46,0,0,1,1.17,3A2.77,2.77,0,0,1,147,22.72Z"/><path class="f" d="M147.62,24.65a11.37,11.37,0,0,0-3.9,5.32A9,9,0,0,0,144,36.5a7.49,7.49,0,0,0,4.93,4.18"/><path class="f" d="M144.22,26.13A8.88,8.88,0,0,0,144.79,40"/><path class="f" d="M151.92,23.08a12.75,12.75,0,0,1-.43,17.6"/><path class="f" d="M156,26A9.38,9.38,0,0,1,154,39.38"/><path class="f" d="M160.69,31.13A6.08,6.08,0,0,1,158,37.05"/><path class="f" d="M149.53,25a27.4,27.4,0,0,0-2,6.83,9.31,9.31,0,0,0,1.56,6.81"/><path class="f" d="M151.29,26.16a15.51,15.51,0,0,1,.06,12.94"/></g><g class="c"><path class="g" d="M225.09,30.21c-1.5-1.44-1.54-2.74-2.88-4.35-2.05-2.47-1.52-3.6-3.23-6.3A5.83,5.83,0,0,0,215.36,17a3.36,3.36,0,0,0-2,.15c-1.64.74-2,1.52-3.23,2.81a6.18,6.18,0,0,1-2.6,1.39c-1.43.46-2.94.64-4.38,1.05a7.94,7.94,0,0,0-5.71,5.7c-.91,2.68-.65,4.49,1.57,7,1.19,1.34,1.46,3.21,2.12,4.86a3.47,3.47,0,0,0,3.24,2.6,8.65,8.65,0,0,0,4.27-.58c2-.84,3.69-2.45,5.74-3.27,3-1.21,4.83-1,8-1.54a5.7,5.7,0,0,0,2.49-.93,4,4,0,0,0,.63-5.53A5,5,0,0,0,225.09,30.21Z"/><circle class="g" cx="209.13" cy="31.01" r="4.58"/></g><path class="b" d="M146,224c.46-.71-.83-1.38-1.25-2.48s-.38-1.63.31-1.81,1.92,2,2.22,2.73c.91,2.3.32,3.12,1.29,3.71,1.25.75,3.41-.18,4.32-.48a6.72,6.72,0,0,0,3.34-2.24c.41-.62-1-1.58-1.28-3.9s-.1-3.44.82-3.63c.76-.16,1.38.38,1.58,1.73.16,1.06-1,3.32,0,4.16s3.09-1,3.93-2.73c1.61-3.38,1.15-5.17-.08-7.39-2.43-4.4-8.79-6.72-14.95-4.34-6.36,2.45-9.27,9.5-6.72,14.59C141.07,224.93,145.1,225.3,146,224Z"/><g class="c"><path class="d" d="M199,212.94c.49-3.63,4.18-8.14,8-10.2,3.34-1.79,7-1.49,8.25,1.86.68,1.8.2,4.4,1.8,7s12.29,7,8.51,11.6c-4,4.86-14.92,3.45-19.49.76C199.19,219.88,198.52,216.53,199,212.94Z"/><path class="d" d="M200.48,213.12c.44-3.22,3.71-7.22,7.1-9.05,3-1.59,5.92-1.3,7,1.67.6,1.59.1,4,1.52,6.27s11.16,6.47,7.8,10.54c-3.55,4.31-13.13,2.7-17.18.32C200.64,219.27,200,216.3,200.48,213.12Z"/><path class="d" d="M210.32,216.07a3.18,3.18,0,0,1-3.82-1,2.84,2.84,0,0,1,2.36-4.74,3.92,3.92,0,0,1,2.35,1,2.67,2.67,0,0,1,1,1.51A3.38,3.38,0,0,1,210.32,216.07Z"/></g><g class="c"><path class="e" d="M218,144.39l.84.4c4.43,1.83,7.55,6.16,7.55,10.05,0,5.11-5.38,8.61-12,8.61s-12-3.5-12-8.61c0-4.48,4-8,8.26-10a5.08,5.08,0,0,0,1.64-1.26A4,4,0,0,0,213,142a3.62,3.62,0,0,0-1-3.35,4.8,4.8,0,0,1,1.57,1.11,8.31,8.31,0,0,1,1.26,2.13,4.46,4.46,0,0,1,1.32-2.07,3,3,0,0,1,1.61-.61,4.42,4.42,0,0,0-1.18,3A2.81,2.81,0,0,0,218,144.39Z"/><path class="f" d="M217.37,146.32a11.29,11.29,0,0,1,3.91,5.31,9,9,0,0,1-.26,6.53,7.49,7.49,0,0,1-4.93,4.19"/><path class="f" d="M220.77,147.8a8.87,8.87,0,0,1-.57,13.84"/><path class="f" d="M213.07,144.75a12.76,12.76,0,0,0,.44,17.6"/><path class="f" d="M209.05,147.62A9.36,9.36,0,0,0,211,161"/><path class="f" d="M204.3,152.8a6.1,6.1,0,0,0,2.74,5.91"/><path class="f" d="M215.46,146.64a27.63,27.63,0,0,1,2,6.84,9.34,9.34,0,0,1-1.57,6.8"/><path class="f" d="M213.7,147.83a15.55,15.55,0,0,0-.06,12.94"/></g><g class="c"><path class="g" d="M139.91,151.87c1.49-1.44,1.54-2.73,2.88-4.35,2-2.46,1.51-3.59,3.22-6.3a5.77,5.77,0,0,1,3.63-2.53,3.24,3.24,0,0,1,2,.15c1.64.74,2,1.52,3.23,2.8a6.11,6.11,0,0,0,2.61,1.39c1.43.46,2.93.64,4.38,1.06a8,8,0,0,1,5.71,5.69c.9,2.68.65,4.49-1.58,7-1.18,1.35-1.46,3.21-2.12,4.87a4.17,4.17,0,0,1-1.39,2,4.1,4.1,0,0,1-1.84.61,8.59,8.59,0,0,1-4.28-.57c-2-.84-3.68-2.45-5.74-3.27-3-1.21-4.82-1-8-1.54a5.79,5.79,0,0,1-2.49-.93,4.09,4.09,0,0,1-.14-6.08Z"/><circle class="g" cx="155.87" cy="152.67" r="4.58"/></g><path class="b" d="M339.44,141.05c-.46.71.83,1.37,1.25,2.47s.38,1.63-.31,1.82-1.92-2-2.22-2.74c-.91-2.3-.32-3.12-1.29-3.7-1.25-.76-3.41.17-4.32.47a6.72,6.72,0,0,0-3.34,2.24c-.41.62,1,1.59,1.28,3.9s.1,3.45-.82,3.64c-.76.15-1.38-.39-1.58-1.74-.16-1.06,1-3.32,0-4.15s-3.09,1-3.93,2.72c-1.6,3.39-1.15,5.18.08,7.39,2.43,4.4,8.79,6.72,15,4.34,6.36-2.45,9.27-9.49,6.72-14.58C344.34,140.06,340.31,139.69,339.44,141.05Z"/><g class="c"><path class="d" d="M286.4,152.05c-.49,3.64-4.18,8.14-8,10.2-3.34,1.79-7,1.49-8.25-1.86-.68-1.79-.2-4.39-1.8-7s-12.29-7-8.51-11.6c4-4.86,14.92-3.45,19.49-.77C286.22,145.12,286.89,148.46,286.4,152.05Z"/><path class="d" d="M284.93,151.87c-.44,3.23-3.71,7.23-7.1,9-3,1.59-5.92,1.3-7-1.67-.6-1.59-.1-4-1.52-6.26s-11.16-6.48-7.8-10.55c3.55-4.31,13.13-2.69,17.18-.31C284.77,145.72,285.37,148.69,284.93,151.87Z"/><path class="d" d="M275.09,148.92a3.18,3.18,0,0,1,3.82,1,3,3,0,0,1,0,3.84,3.05,3.05,0,0,1-2.35.91,4,4,0,0,1-2.35-1,2.76,2.76,0,0,1-1-1.51A3.39,3.39,0,0,1,275.09,148.92Z"/></g><g class="c"><path class="e" d="M267.42,207.32l-.84.4c-4.43,1.84-7.55,6.16-7.55,10.06,0,5.1,5.38,8.6,12,8.6s12-3.5,12-8.6c0-4.48-4-8-8.26-10a5.08,5.08,0,0,1-1.64-1.26,4,4,0,0,1-.73-1.62,3.63,3.63,0,0,1,1-3.35,4.8,4.8,0,0,0-1.57,1.11,8.31,8.31,0,0,0-1.26,2.13,4.46,4.46,0,0,0-1.32-2.07,2.91,2.91,0,0,0-1.61-.6,4.41,4.41,0,0,1,1.18,3A2.77,2.77,0,0,1,267.42,207.32Z"/><path class="f" d="M268,209.25a11.29,11.29,0,0,0-3.91,5.31,9,9,0,0,0,.26,6.54,7.47,7.47,0,0,0,4.93,4.18"/><path class="f" d="M264.64,210.73a8.87,8.87,0,0,0,.57,13.84"/><path class="f" d="M272.34,207.68a12.76,12.76,0,0,1-.44,17.6"/><path class="f" d="M276.36,210.56A9.35,9.35,0,0,1,274.45,224"/><path class="f" d="M281.11,215.73a6.07,6.07,0,0,1-2.74,5.91"/><path class="f" d="M270,209.57a27.63,27.63,0,0,0-2.05,6.84,9.33,9.33,0,0,0,1.57,6.8"/><path class="f" d="M271.71,210.76a15.55,15.55,0,0,1,.06,12.94"/></g><g class="c"><path class="g" d="M345.5,213.12c-1.49,1.44-1.54,2.74-2.88,4.35-2,2.47-1.51,3.6-3.22,6.3a5.83,5.83,0,0,1-3.62,2.54,3.35,3.35,0,0,1-2-.15c-1.64-.74-2-1.53-3.23-2.81A6.22,6.22,0,0,0,328,222c-1.43-.46-2.93-.64-4.38-1.05a8,8,0,0,1-5.71-5.7c-.9-2.68-.64-4.49,1.58-7,1.18-1.34,1.46-3.21,2.12-4.86a4.2,4.2,0,0,1,1.39-2,4.1,4.1,0,0,1,1.84-.61,8.71,8.71,0,0,1,4.28.58c2,.84,3.68,2.45,5.74,3.27,3,1.21,4.82,1,8,1.54a5.79,5.79,0,0,1,2.49.93,4,4,0,0,1,.63,5.53A4.19,4.19,0,0,1,345.5,213.12Z"/><circle class="g" cx="329.54" cy="212.32" r="4.58"/></g><path class="b" d="M266.39,19.38c.46.71-.84,1.38-1.25,2.48s-.38,1.63.31,1.81,1.91-2,2.22-2.73c.91-2.3.31-3.12,1.29-3.71,1.25-.75,3.41.18,4.32.48A6.72,6.72,0,0,1,276.62,20c.41.62-1,1.58-1.28,3.9s-.11,3.44.81,3.63c.76.16,1.39-.38,1.59-1.73.15-1.06-1-3.32,0-4.16s3.09,1,3.92,2.73c1.61,3.38,1.15,5.17-.07,7.39-2.43,4.4-8.8,6.72-15,4.34-6.35-2.45-9.26-9.5-6.71-14.59C261.49,18.4,265.52,18,266.39,19.38Z"/><g class="c"><path class="d" d="M319.42,30.39c.5,3.63,4.19,8.14,8,10.2,3.34,1.79,7,1.49,8.25-1.86.67-1.8.19-4.4,1.79-7s12.3-7,8.52-11.6c-4-4.86-14.92-3.45-19.49-.76C319.61,23.45,318.94,26.8,319.42,30.39Z"/><path class="d" d="M320.89,30.21c.44,3.22,3.71,7.22,7.11,9,3,1.59,5.92,1.3,7-1.67.59-1.6.1-4,1.52-6.27s11.15-6.47,7.8-10.54c-3.55-4.31-13.13-2.7-17.18-.32C321.06,24.06,320.46,27,320.89,30.21Z"/><path class="d" d="M330.74,27.26a3.19,3.19,0,0,0-3.83,1,3,3,0,0,0,0,3.83,3,3,0,0,0,2.35.91,3.93,3.93,0,0,0,2.36-1,2.71,2.71,0,0,0,1-1.51A3.35,3.35,0,0,0,330.74,27.26Z"/></g><g class="c"><path class="e" d="M338.41,85.65l.83.41c4.43,1.83,7.56,6.16,7.56,10,0,5.11-5.38,8.61-12,8.61s-12-3.5-12-8.61c0-4.48,4-8,8.25-10a5.25,5.25,0,0,0,1.65-1.25,4,4,0,0,0,.73-1.62,3.62,3.62,0,0,0-1-3.35A4.66,4.66,0,0,1,334,81a7.63,7.63,0,0,1,1.26,2.13,4.57,4.57,0,0,1,1.32-2.07,3.05,3.05,0,0,1,1.61-.61,4.46,4.46,0,0,0-1.17,3A2.77,2.77,0,0,0,338.41,85.65Z"/><path class="f" d="M337.79,87.58a11.3,11.3,0,0,1,3.9,5.32,9,9,0,0,1-.25,6.53,7.54,7.54,0,0,1-4.93,4.19"/><path class="f" d="M341.19,89.07a8.87,8.87,0,0,1-.57,13.84"/><path class="f" d="M333.49,86a12.75,12.75,0,0,0,.43,17.6"/><path class="f" d="M329.46,88.89a9.38,9.38,0,0,0,1.91,13.42"/><path class="f" d="M324.72,94.07a6.08,6.08,0,0,0,2.74,5.91"/><path class="f" d="M335.88,87.91a27.6,27.6,0,0,1,2,6.84,9.29,9.29,0,0,1-1.56,6.8"/><path class="f" d="M334.12,89.09a15.51,15.51,0,0,0-.06,12.94"/></g><g class="c"><path class="g" d="M260.32,91.46c1.5,1.44,1.54,2.73,2.88,4.35,2.05,2.46,1.52,3.59,3.23,6.3a5.77,5.77,0,0,0,3.62,2.53,3.36,3.36,0,0,0,2-.15c1.64-.74,2-1.52,3.23-2.8a6.05,6.05,0,0,1,2.61-1.39c1.42-.46,2.93-.64,4.37-1.06a8,8,0,0,0,5.71-5.69c.91-2.68.65-4.49-1.57-7-1.19-1.35-1.46-3.21-2.12-4.87a4.24,4.24,0,0,0-1.39-2,4.14,4.14,0,0,0-1.85-.61,8.53,8.53,0,0,0-4.27.57c-2,.84-3.69,2.45-5.74,3.27-3,1.21-4.82,1-8,1.54a5.7,5.7,0,0,0-2.49.93,4,4,0,0,0-.63,5.54A6.17,6.17,0,0,0,260.32,91.46Z"/><circle class="g" cx="276.28" cy="90.66" r="4.58"/></g><path class="b" d="M452.13,87.1c.45.71-.84,1.38-1.25,2.48s-.38,1.63.31,1.81,1.91-2,2.22-2.73c.91-2.3.31-3.12,1.29-3.71,1.25-.75,3.41.18,4.32.48a6.7,6.7,0,0,1,3.34,2.24c.41.62-1,1.58-1.28,3.9s-.11,3.44.81,3.63c.76.16,1.39-.38,1.59-1.73.15-1.06-1-3.32,0-4.16s3.09,1,3.92,2.72c1.61,3.39,1.15,5.18-.07,7.4-2.43,4.4-8.8,6.72-15,4.34-6.35-2.45-9.27-9.5-6.71-14.59C447.22,86.11,451.26,85.74,452.13,87.1Z"/><g class="c"><path class="d" d="M408.07,91.28c-.5-3.64-4.19-8.15-8-10.2-3.34-1.8-7-1.49-8.25,1.86-.67,1.79-.19,4.39-1.79,7s-12.3,7-8.51,11.6c4,4.86,14.91,3.45,19.48.77C407.88,98.21,408.56,94.87,408.07,91.28Z"/><path class="d" d="M406.6,91.46c-.44-3.23-3.71-7.23-7.11-9-3-1.59-5.91-1.3-7,1.67-.6,1.59-.11,4-1.53,6.26s-11.15,6.48-7.8,10.55c3.56,4.31,13.13,2.69,17.18.31C406.43,97.61,407,94.64,406.6,91.46Z"/><path class="d" d="M396.76,94.41a3.18,3.18,0,0,0,3.82-1,3,3,0,0,0,0-3.84,3.07,3.07,0,0,0-2.35-.91,4,4,0,0,0-2.36,1,2.74,2.74,0,0,0-1,1.51A3.37,3.37,0,0,0,396.76,94.41Z"/></g><g class="c"><path class="e" d="M389.08,22.72l-.83.4c-4.43,1.84-7.56,6.17-7.56,10.06,0,5.11,5.38,8.61,12,8.61s12-3.5,12-8.61c0-4.48-4-8-8.26-10a5.25,5.25,0,0,1-1.65-1.25,4.24,4.24,0,0,1-.73-1.62,3.64,3.64,0,0,1,1-3.36,4.94,4.94,0,0,0-1.56,1.12,7.72,7.72,0,0,0-1.26,2.12,4.38,4.38,0,0,0-1.32-2.06,3,3,0,0,0-1.61-.61,4.47,4.47,0,0,1,1.18,3A2.78,2.78,0,0,1,389.08,22.72Z"/><path class="f" d="M389.7,24.65A11.37,11.37,0,0,0,385.8,30a9,9,0,0,0,.25,6.53A7.49,7.49,0,0,0,391,40.68"/><path class="f" d="M386.3,26.13A8.88,8.88,0,0,0,386.87,40"/><path class="f" d="M394,23.08a12.75,12.75,0,0,1-.43,17.6"/><path class="f" d="M398,26a9.38,9.38,0,0,1-1.91,13.42"/><path class="f" d="M402.77,31.13A6.08,6.08,0,0,1,400,37.05"/><path class="f" d="M391.61,25a27.4,27.4,0,0,0-2,6.83,9.32,9.32,0,0,0,1.57,6.81"/><path class="f" d="M393.37,26.16a15.47,15.47,0,0,1,.06,12.94"/></g><g class="c"><path class="g" d="M467.17,30.21c-1.49-1.44-1.54-2.74-2.88-4.35-2.05-2.47-1.52-3.6-3.23-6.3A5.83,5.83,0,0,0,457.44,17a3.36,3.36,0,0,0-2,.15c-1.64.74-2,1.52-3.23,2.81a6.12,6.12,0,0,1-2.6,1.39c-1.43.46-2.94.64-4.38,1.05a7.94,7.94,0,0,0-5.71,5.7c-.9,2.68-.65,4.49,1.57,7,1.19,1.34,1.47,3.21,2.12,4.86a3.49,3.49,0,0,0,3.24,2.6,8.65,8.65,0,0,0,4.27-.58c2.05-.84,3.69-2.45,5.74-3.27,3-1.21,4.83-1,8-1.54a5.71,5.71,0,0,0,2.48-.93,4,4,0,0,0,.63-5.53A5,5,0,0,0,467.17,30.21Z"/><circle class="g" cx="451.21" cy="31.01" r="4.58"/></g><path class="b" d="M388.06,224c.45-.71-.84-1.38-1.26-2.48s-.38-1.63.32-1.81,1.91,2,2.21,2.73c.91,2.3.32,3.12,1.29,3.71,1.26.75,3.41-.18,4.33-.48a6.74,6.74,0,0,0,3.33-2.24c.41-.62-1-1.58-1.27-3.9s-.11-3.44.81-3.63c.76-.16,1.38.38,1.58,1.73.16,1.06-.95,3.32,0,4.16s3.09-1,3.93-2.73c1.61-3.38,1.15-5.17-.08-7.39-2.43-4.4-8.79-6.72-14.95-4.34-6.36,2.45-9.27,9.5-6.72,14.59C383.15,224.93,387.18,225.3,388.06,224Z"/><g class="c"><path class="d" d="M441.09,212.94c.49-3.63,4.18-8.14,8-10.2,3.34-1.79,7-1.49,8.25,1.86.68,1.8.2,4.4,1.8,7s12.29,7,8.51,11.6c-4,4.86-14.92,3.45-19.48.76C441.27,219.88,440.6,216.53,441.09,212.94Z"/><path class="d" d="M442.56,213.12c.44-3.22,3.71-7.22,7.11-9.05,3-1.59,5.91-1.3,7,1.67.6,1.59.1,4,1.52,6.27s11.16,6.47,7.8,10.54c-3.55,4.31-13.13,2.7-17.18.32C442.72,219.27,442.12,216.3,442.56,213.12Z"/><path class="d" d="M452.4,216.07a3.18,3.18,0,0,1-3.82-1,2.84,2.84,0,0,1,2.36-4.74,3.9,3.9,0,0,1,2.35,1,2.67,2.67,0,0,1,1,1.51A3.38,3.38,0,0,1,452.4,216.07Z"/></g><g class="c"><path class="e" d="M460.07,144.39l.84.4c4.43,1.83,7.56,6.16,7.56,10.05,0,5.11-5.38,8.61-12,8.61s-12-3.5-12-8.61c0-4.48,4-8,8.26-10a5.08,5.08,0,0,0,1.64-1.26,3.9,3.9,0,0,0,.73-1.62,3.62,3.62,0,0,0-1-3.35,4.8,4.8,0,0,1,1.57,1.11,8,8,0,0,1,1.26,2.13,4.46,4.46,0,0,1,1.32-2.07,3,3,0,0,1,1.61-.61,4.47,4.47,0,0,0-1.18,3A2.83,2.83,0,0,0,460.07,144.39Z"/><path class="f" d="M459.45,146.32a11.29,11.29,0,0,1,3.91,5.31,9,9,0,0,1-.26,6.53,7.49,7.49,0,0,1-4.93,4.19"/><path class="f" d="M462.85,147.8a8.88,8.88,0,0,1-.56,13.84"/><path class="f" d="M455.15,144.75a12.76,12.76,0,0,0,.44,17.6"/><path class="f" d="M451.13,147.62A9.36,9.36,0,0,0,453,161"/><path class="f" d="M446.38,152.8a6.1,6.1,0,0,0,2.74,5.91"/><path class="f" d="M457.54,146.64a27.63,27.63,0,0,1,2,6.84,9.34,9.34,0,0,1-1.57,6.8"/><path class="f" d="M455.78,147.83a15.51,15.51,0,0,0,0,12.94"/></g><g class="c"><path class="g" d="M382,151.87c1.49-1.44,1.54-2.73,2.88-4.35,2-2.46,1.52-3.59,3.22-6.3a5.77,5.77,0,0,1,3.63-2.53,3.24,3.24,0,0,1,1.95.15c1.64.74,2,1.52,3.23,2.8a6.11,6.11,0,0,0,2.61,1.39c1.43.46,2.93.64,4.38,1.06a8,8,0,0,1,5.71,5.69c.9,2.68.65,4.49-1.58,7-1.18,1.35-1.46,3.21-2.12,4.87a4.17,4.17,0,0,1-1.39,2,4.06,4.06,0,0,1-1.84.61,8.53,8.53,0,0,1-4.27-.57c-2-.84-3.69-2.45-5.75-3.27-3-1.21-4.82-1-8-1.54a5.79,5.79,0,0,1-2.49-.93,4,4,0,0,1-.62-5.54A4.88,4.88,0,0,1,382,151.87Z"/><circle class="g" cx="397.95" cy="152.67" r="4.58"/></g><path class="b" d="M98,384.38c-.46.71.84,1.37,1.25,2.47s.38,1.63-.31,1.82-1.91-2-2.22-2.74c-.91-2.3-.31-3.12-1.29-3.7-1.25-.76-3.41.17-4.32.47a6.72,6.72,0,0,0-3.34,2.24c-.41.62,1,1.59,1.28,3.9s.11,3.45-.81,3.64c-.76.15-1.39-.39-1.59-1.74-.15-1.06,1-3.32,0-4.15s-3.09,1-3.92,2.72c-1.61,3.38-1.15,5.17.07,7.39,2.43,4.4,8.8,6.72,15,4.34,6.35-2.45,9.26-9.5,6.71-14.58C102.88,383.39,98.85,383,98,384.38Z"/><g class="c"><path class="d" d="M45,395.38c-.5,3.63-4.19,8.14-8,10.2-3.34,1.79-7,1.49-8.25-1.86-.67-1.79-.19-4.39-1.79-7s-12.3-7-8.52-11.6c4-4.86,14.92-3.45,19.49-.77C44.76,388.45,45.43,391.79,45,395.38Z"/><path class="d" d="M43.48,395.2c-.44,3.23-3.71,7.23-7.11,9.05-3,1.59-5.92,1.3-7-1.67-.6-1.59-.11-4-1.53-6.26s-11.15-6.48-7.8-10.55c3.55-4.31,13.13-2.69,17.18-.31C43.31,389.05,43.91,392,43.48,395.2Z"/><path class="d" d="M33.63,392.25a3.19,3.19,0,0,1,3.83,1,3,3,0,0,1,0,3.84,3.07,3.07,0,0,1-2.35.91,4,4,0,0,1-2.36-1,2.74,2.74,0,0,1-1-1.51A3.36,3.36,0,0,1,33.63,392.25Z"/></g><g class="c"><path class="e" d="M26,450.65l-.83.4c-4.43,1.84-7.56,6.16-7.56,10.06,0,5.1,5.38,8.6,12,8.6s12-3.5,12-8.6c0-4.48-4-8-8.25-10a5.18,5.18,0,0,1-1.65-1.26,4,4,0,0,1-.73-1.62,3.62,3.62,0,0,1,1-3.35A4.66,4.66,0,0,0,30.38,446a7.78,7.78,0,0,0-1.26,2.13A4.62,4.62,0,0,0,27.8,446a3,3,0,0,0-1.61-.6,4.44,4.44,0,0,1,1.17,3A2.79,2.79,0,0,1,26,450.65Z"/><path class="f" d="M26.58,452.58a11.27,11.27,0,0,0-3.9,5.31,9.05,9.05,0,0,0,.25,6.54,7.49,7.49,0,0,0,4.93,4.18"/><path class="f" d="M23.18,454.06a8.87,8.87,0,0,0,.57,13.84"/><path class="f" d="M30.88,451a12.75,12.75,0,0,1-.43,17.6"/><path class="f" d="M34.91,453.88A9.38,9.38,0,0,1,33,467.3"/><path class="f" d="M39.65,459.06A6.07,6.07,0,0,1,36.91,465"/><path class="f" d="M28.49,452.9a27.6,27.6,0,0,0-2,6.84,9.29,9.29,0,0,0,1.56,6.8"/><path class="f" d="M30.25,454.09A15.51,15.51,0,0,1,30.31,467"/></g><g class="c"><path class="g" d="M104.05,456.45c-1.5,1.44-1.54,2.74-2.88,4.35-2,2.47-1.52,3.6-3.23,6.3a5.83,5.83,0,0,1-3.62,2.54,3.36,3.36,0,0,1-2-.15c-1.64-.74-2-1.53-3.23-2.81a6.18,6.18,0,0,0-2.6-1.39c-1.43-.46-2.94-.64-4.38-1.05a7.94,7.94,0,0,1-5.71-5.7c-.91-2.68-.65-4.49,1.57-7,1.19-1.34,1.46-3.21,2.12-4.86a4.27,4.27,0,0,1,1.39-2,4.14,4.14,0,0,1,1.85-.61,8.54,8.54,0,0,1,4.27.58c2,.84,3.69,2.44,5.74,3.27,3,1.21,4.82,1,8,1.54a5.7,5.7,0,0,1,2.49.93,4,4,0,0,1,.63,5.53A5,5,0,0,1,104.05,456.45Z"/><circle class="g" cx="88.09" cy="455.65" r="4.58"/></g><path class="b" d="M24.93,262.71c.46.71-.83,1.38-1.25,2.48s-.38,1.63.31,1.81,1.92-2,2.22-2.73c.91-2.3.32-3.12,1.29-3.71,1.25-.75,3.41.18,4.32.48a6.72,6.72,0,0,1,3.34,2.24c.41.62-1,1.58-1.28,3.9s-.1,3.44.82,3.63c.76.16,1.38-.38,1.58-1.73.16-1.06-1-3.32,0-4.16s3.09,1,3.93,2.73c1.6,3.38,1.15,5.17-.08,7.39-2.43,4.4-8.79,6.72-14.95,4.34-6.36-2.45-9.27-9.5-6.72-14.59C20,261.72,24.06,261.36,24.93,262.71Z"/><g class="c"><path class="d" d="M78,273.71c.49,3.64,4.18,8.15,8,10.21,3.34,1.79,7,1.49,8.25-1.86.68-1.8.2-4.4,1.8-7s12.29-7,8.51-11.6c-4-4.86-14.92-3.45-19.49-.76C78.15,266.78,77.48,270.13,78,273.71Z"/><path class="d" d="M79.44,273.54c.44,3.22,3.71,7.22,7.1,9,3,1.59,5.92,1.3,7-1.67.6-1.6.1-4,1.52-6.27s11.16-6.47,7.8-10.54c-3.55-4.31-13.13-2.7-17.18-.32C79.6,267.39,79,270.35,79.44,273.54Z"/><path class="d" d="M89.28,270.59a3.18,3.18,0,0,0-3.82,1,2.84,2.84,0,0,0,2.36,4.74,3.92,3.92,0,0,0,2.35-1,2.72,2.72,0,0,0,1-1.51A3.38,3.38,0,0,0,89.28,270.59Z"/></g><g class="c"><path class="e" d="M97,329l.84.41c4.43,1.83,7.55,6.16,7.55,10.05,0,5.11-5.38,8.61-12,8.61s-12-3.5-12-8.61c0-4.48,4-8,8.26-10a5.15,5.15,0,0,0,1.64-1.25,4,4,0,0,0,.73-1.62,3.62,3.62,0,0,0-1-3.35,4.8,4.8,0,0,1,1.57,1.11,8.15,8.15,0,0,1,1.26,2.13,4.36,4.36,0,0,1,1.32-2.07,3,3,0,0,1,1.61-.61,4.42,4.42,0,0,0-1.18,3A2.77,2.77,0,0,0,97,329Z"/><path class="f" d="M96.33,330.91a11.32,11.32,0,0,1,3.91,5.32,9,9,0,0,1-.26,6.53A7.51,7.51,0,0,1,95.05,347"/><path class="f" d="M99.73,332.4a8.87,8.87,0,0,1-.57,13.84"/><path class="f" d="M92,329.35a12.76,12.76,0,0,0,.44,17.6"/><path class="f" d="M88,332.22a9.36,9.36,0,0,0,1.91,13.42"/><path class="f" d="M83.26,337.4A6.09,6.09,0,0,0,86,343.31"/><path class="f" d="M94.42,331.24a27.63,27.63,0,0,1,2,6.84,9.34,9.34,0,0,1-1.57,6.8"/><path class="f" d="M92.66,332.42a15.55,15.55,0,0,0-.06,12.94"/></g><g class="c"><path class="g" d="M18.87,334.79c1.49,1.44,1.54,2.73,2.88,4.35,2,2.46,1.51,3.59,3.22,6.3A5.77,5.77,0,0,0,28.59,348a3.35,3.35,0,0,0,2-.15c1.64-.74,2-1.52,3.23-2.8a6.11,6.11,0,0,1,2.61-1.39c1.43-.46,2.93-.65,4.38-1.06a8,8,0,0,0,5.71-5.69c.9-2.68.64-4.49-1.58-7-1.18-1.35-1.46-3.21-2.12-4.87a4.17,4.17,0,0,0-1.39-2,4.1,4.1,0,0,0-1.84-.61,8.59,8.59,0,0,0-4.28.57c-2,.84-3.68,2.45-5.74,3.27-3,1.21-4.82,1-8,1.54a5.79,5.79,0,0,0-2.49.93,4,4,0,0,0-.63,5.54A5,5,0,0,0,18.87,334.79Z"/><circle class="g" cx="34.83" cy="333.99" r="4.58"/></g><path class="b" d="M210.67,330.43c.46.71-.84,1.38-1.25,2.48s-.38,1.63.31,1.81,1.91-2,2.22-2.73c.91-2.3.31-3.12,1.29-3.71,1.25-.75,3.41.18,4.32.48A6.7,6.7,0,0,1,220.9,331c.41.63-1,1.59-1.28,3.91s-.1,3.44.81,3.63c.76.16,1.39-.38,1.59-1.73.16-1.06-1-3.32,0-4.16s3.09,1,3.92,2.72c1.61,3.39,1.16,5.18-.07,7.4-2.43,4.4-8.79,6.72-15,4.34-6.35-2.46-9.26-9.5-6.71-14.59C205.77,329.44,209.8,329.07,210.67,330.43Z"/><g class="c"><path class="d" d="M166.61,334.61c-.49-3.64-4.18-8.15-8-10.2-3.34-1.8-7-1.5-8.25,1.85-.68,1.8-.2,4.4-1.8,7s-12.29,7-8.51,11.6c4,4.86,14.92,3.45,19.48.77C166.42,341.54,167.1,338.2,166.61,334.61Z"/><path class="d" d="M165.14,334.79c-.44-3.23-3.71-7.23-7.11-9.05-3-1.59-5.91-1.3-7,1.67-.6,1.59-.1,4-1.52,6.26s-11.16,6.48-7.8,10.55c3.55,4.31,13.13,2.69,17.18.31C165,340.94,165.57,338,165.14,334.79Z"/><path class="d" d="M155.3,337.74a3.18,3.18,0,0,0,3.82-1,3,3,0,0,0,0-3.84,3.05,3.05,0,0,0-2.35-.91,4,4,0,0,0-2.35,1,2.71,2.71,0,0,0-1,1.51A3.37,3.37,0,0,0,155.3,337.74Z"/></g><g class="c"><path class="e" d="M147.63,266.05l-.84.4c-4.43,1.84-7.56,6.16-7.56,10.06,0,5.11,5.38,8.61,12,8.61s12-3.5,12-8.61c0-4.48-4-8-8.26-10a5.15,5.15,0,0,1-1.64-1.25,4,4,0,0,1-.73-1.62,3.62,3.62,0,0,1,1-3.36,5.11,5.11,0,0,0-1.57,1.11,7.93,7.93,0,0,0-1.26,2.13,4.38,4.38,0,0,0-1.32-2.06,2.92,2.92,0,0,0-1.61-.61,4.47,4.47,0,0,1,1.18,3A2.8,2.8,0,0,1,147.63,266.05Z"/><path class="f" d="M148.25,268a11.32,11.32,0,0,0-3.91,5.32,9,9,0,0,0,.26,6.53,7.47,7.47,0,0,0,4.93,4.18"/><path class="f" d="M144.85,269.46a8.88,8.88,0,0,0,.56,13.84"/><path class="f" d="M152.54,266.41a12.75,12.75,0,0,1-.43,17.6"/><path class="f" d="M156.57,269.29a9.36,9.36,0,0,1-1.91,13.42"/><path class="f" d="M161.32,274.46a6.11,6.11,0,0,1-2.74,5.92"/><path class="f" d="M150.16,268.3a27.63,27.63,0,0,0-2,6.84,9.33,9.33,0,0,0,1.57,6.8"/><path class="f" d="M151.92,269.49a15.51,15.51,0,0,1,.05,12.94"/></g><g class="c"><path class="g" d="M225.71,273.54c-1.49-1.44-1.54-2.74-2.88-4.35-2-2.47-1.52-3.6-3.22-6.3a5.82,5.82,0,0,0-3.63-2.54,3.32,3.32,0,0,0-1.95.15c-1.64.74-2,1.52-3.23,2.81a6.22,6.22,0,0,1-2.61,1.39c-1.43.46-2.93.64-4.38,1.05a8,8,0,0,0-5.71,5.7c-.9,2.68-.65,4.48,1.58,7,1.18,1.34,1.46,3.21,2.12,4.86a4.13,4.13,0,0,0,1.39,2,4.07,4.07,0,0,0,1.84.62,8.65,8.65,0,0,0,4.27-.58c2-.84,3.69-2.45,5.75-3.27,3-1.21,4.82-1,8-1.54a5.79,5.79,0,0,0,2.49-.93,4,4,0,0,0,.62-5.54A4.79,4.79,0,0,0,225.71,273.54Z"/><circle class="g" cx="209.75" cy="274.34" r="4.58"/></g><path class="b" d="M146.6,467.28c.45-.71-.84-1.38-1.26-2.48s-.37-1.63.32-1.81,1.91,2,2.22,2.73c.91,2.3.31,3.12,1.29,3.71,1.25.75,3.41-.18,4.32-.48a6.76,6.76,0,0,0,3.34-2.24c.41-.62-1-1.58-1.28-3.9s-.11-3.44.81-3.63c.76-.16,1.39.38,1.59,1.73.15,1.06-1,3.32,0,4.16s3.09-1,3.92-2.73c1.61-3.38,1.15-5.17-.07-7.39-2.43-4.4-8.8-6.72-15-4.34-6.35,2.45-9.27,9.5-6.71,14.59C141.69,468.26,145.73,468.63,146.6,467.28Z"/><g class="c"><path class="d" d="M199.63,456.27c.5-3.63,4.19-8.14,8-10.2,3.34-1.79,7-1.49,8.24,1.86.68,1.79.2,4.4,1.8,7s12.29,7,8.51,11.61c-4,4.86-14.91,3.45-19.48.76C199.82,463.21,199.14,459.86,199.63,456.27Z"/><path class="d" d="M201.1,456.45c.44-3.22,3.71-7.22,7.11-9.05,3-1.59,5.91-1.3,7,1.67.6,1.59.1,4,1.53,6.27s11.15,6.47,7.8,10.54c-3.56,4.31-13.13,2.7-17.18.32C201.27,462.6,200.67,459.63,201.1,456.45Z"/><path class="d" d="M210.94,459.4a3.18,3.18,0,0,1-3.82-1,2.84,2.84,0,0,1,2.36-4.74,3.93,3.93,0,0,1,2.36,1,2.71,2.71,0,0,1,1,1.51A3.36,3.36,0,0,1,210.94,459.4Z"/></g><g class="c"><path class="e" d="M218.62,387.72l.83.4c4.43,1.83,7.56,6.16,7.56,10.05,0,5.11-5.38,8.61-12,8.61s-12-3.5-12-8.61c0-4.48,4-8,8.26-10a5.18,5.18,0,0,0,1.65-1.26,4.18,4.18,0,0,0,.73-1.62,3.6,3.6,0,0,0-1-3.35,4.69,4.69,0,0,1,1.57,1.11,7.78,7.78,0,0,1,1.26,2.13,4.41,4.41,0,0,1,1.32-2.07,3,3,0,0,1,1.61-.61,4.47,4.47,0,0,0-1.18,3A2.82,2.82,0,0,0,218.62,387.72Z"/><path class="f" d="M218,389.65a11.34,11.34,0,0,1,3.9,5.31,9,9,0,0,1-.25,6.53,7.54,7.54,0,0,1-4.93,4.19"/><path class="f" d="M221.4,391.13a8.87,8.87,0,0,1-.57,13.84"/><path class="f" d="M213.7,388.08a12.75,12.75,0,0,0,.43,17.6"/><path class="f" d="M209.67,391a9.38,9.38,0,0,0,1.91,13.42"/><path class="f" d="M204.93,396.13a6.06,6.06,0,0,0,2.74,5.91"/><path class="f" d="M216.09,390a27.6,27.6,0,0,1,2,6.84,9.34,9.34,0,0,1-1.57,6.8"/><path class="f" d="M214.33,391.16a15.47,15.47,0,0,0-.06,12.94"/></g><g class="c"><path class="g" d="M140.53,395.2c1.49-1.44,1.54-2.73,2.88-4.35,2.05-2.46,1.52-3.59,3.23-6.3a5.75,5.75,0,0,1,3.62-2.53,3.28,3.28,0,0,1,2,.15c1.64.74,2,1.52,3.23,2.8a6,6,0,0,0,2.6,1.39c1.43.46,2.94.64,4.38,1.06a7.93,7.93,0,0,1,5.71,5.69c.9,2.68.65,4.49-1.58,7-1.18,1.35-1.46,3.21-2.11,4.87a4.19,4.19,0,0,1-1.4,2,4.06,4.06,0,0,1-1.84.61,8.53,8.53,0,0,1-4.27-.57c-2.05-.84-3.69-2.45-5.74-3.28-3-1.2-4.83-1-8-1.53a5.71,5.71,0,0,1-2.48-.93,4,4,0,0,1-.63-5.54A6.17,6.17,0,0,1,140.53,395.2Z"/><circle class="g" cx="156.49" cy="396" r="4.58"/></g><path class="b" d="M340.06,384.38c-.46.71.84,1.37,1.25,2.47s.38,1.63-.31,1.82-1.91-2-2.22-2.74c-.91-2.3-.31-3.12-1.29-3.7-1.25-.76-3.41.17-4.32.47a6.76,6.76,0,0,0-3.34,2.24c-.41.62,1,1.59,1.28,3.9s.11,3.45-.81,3.64c-.76.15-1.39-.39-1.59-1.74-.15-1.06,1-3.32,0-4.15s-3.09,1-3.92,2.72c-1.61,3.38-1.15,5.17.07,7.39,2.43,4.4,8.8,6.72,15,4.34,6.35-2.45,9.27-9.5,6.71-14.58C345,383.39,340.93,383,340.06,384.38Z"/><g class="c"><path class="d" d="M287,395.38c-.5,3.63-4.19,8.14-8,10.2-3.34,1.79-7,1.49-8.25-1.86-.67-1.79-.19-4.39-1.79-7s-12.3-7-8.51-11.6c4-4.86,14.91-3.45,19.48-.77C286.84,388.45,287.52,391.79,287,395.38Z"/><path class="d" d="M285.56,395.2c-.44,3.23-3.71,7.23-7.11,9.05-3,1.59-5.91,1.3-7-1.67-.6-1.59-.11-4-1.53-6.26s-11.15-6.48-7.8-10.55c3.56-4.31,13.13-2.69,17.18-.31C285.39,389.05,286,392,285.56,395.2Z"/><path class="d" d="M275.72,392.25a3.18,3.18,0,0,1,3.82,1,3,3,0,0,1,0,3.84,3.07,3.07,0,0,1-2.35.91,4,4,0,0,1-2.36-1,2.74,2.74,0,0,1-1-1.51A3.35,3.35,0,0,1,275.72,392.25Z"/></g><g class="c"><path class="e" d="M268,450.65l-.83.4c-4.43,1.84-7.56,6.16-7.56,10.06,0,5.1,5.38,8.6,12,8.6s12-3.5,12-8.6c0-4.48-4-8-8.25-10a5.18,5.18,0,0,1-1.65-1.26,4,4,0,0,1-.73-1.62,3.62,3.62,0,0,1,1-3.35,4.76,4.76,0,0,0-1.56,1.11,7.78,7.78,0,0,0-1.26,2.13,4.46,4.46,0,0,0-1.32-2.07,2.93,2.93,0,0,0-1.61-.6,4.44,4.44,0,0,1,1.17,3A2.79,2.79,0,0,1,268,450.65Z"/><path class="f" d="M268.66,452.58a11.34,11.34,0,0,0-3.9,5.31,9.05,9.05,0,0,0,.25,6.54,7.49,7.49,0,0,0,4.93,4.18"/><path class="f" d="M265.26,454.06a8.87,8.87,0,0,0,.57,13.84"/><path class="f" d="M273,451a12.75,12.75,0,0,1-.43,17.6"/><path class="f" d="M277,453.88a9.38,9.38,0,0,1-1.91,13.42"/><path class="f" d="M281.73,459.06A6.05,6.05,0,0,1,279,465"/><path class="f" d="M270.57,452.9a27.6,27.6,0,0,0-2,6.84,9.25,9.25,0,0,0,1.57,6.8"/><path class="f" d="M272.33,454.09a15.47,15.47,0,0,1,.06,12.94"/></g><g class="c"><path class="g" d="M346.13,456.45c-1.5,1.44-1.54,2.74-2.88,4.35-2.05,2.47-1.52,3.6-3.23,6.3a5.83,5.83,0,0,1-3.62,2.54,3.36,3.36,0,0,1-2-.15c-1.64-.74-2-1.53-3.23-2.81a6.18,6.18,0,0,0-2.6-1.39c-1.43-.46-2.94-.64-4.38-1.05a7.94,7.94,0,0,1-5.71-5.7c-.9-2.68-.65-4.49,1.57-7,1.19-1.34,1.46-3.21,2.12-4.86a4.22,4.22,0,0,1,1.4-2,4.06,4.06,0,0,1,1.84-.61,8.54,8.54,0,0,1,4.27.58c2,.84,3.69,2.44,5.74,3.27,3,1.21,4.83,1,8,1.54a5.7,5.7,0,0,1,2.49.93,4,4,0,0,1,.63,5.53A5,5,0,0,1,346.13,456.45Z"/><circle class="g" cx="330.17" cy="455.65" r="4.58"/></g><path class="b" d="M267,262.71c.46.71-.83,1.38-1.25,2.48s-.38,1.63.31,1.81,1.92-2,2.22-2.73c.91-2.3.32-3.12,1.29-3.71,1.26-.75,3.41.18,4.33.48a6.74,6.74,0,0,1,3.33,2.24c.41.62-1,1.58-1.28,3.9s-.1,3.44.82,3.63c.76.16,1.38-.38,1.58-1.73.16-1.06-.95-3.32,0-4.16s3.09,1,3.93,2.73c1.61,3.38,1.15,5.17-.08,7.39-2.43,4.4-8.79,6.72-14.95,4.34-6.36-2.45-9.27-9.5-6.72-14.59C262.11,261.72,266.14,261.36,267,262.71Z"/><g class="c"><path class="d" d="M320.05,273.71c.49,3.64,4.18,8.15,8,10.21,3.34,1.79,7,1.49,8.25-1.86.68-1.8.2-4.4,1.8-7s12.29-7,8.51-11.6c-4-4.86-14.92-3.45-19.49-.76C320.23,266.78,319.56,270.13,320.05,273.71Z"/><path class="d" d="M321.52,273.54c.44,3.22,3.71,7.22,7.11,9,3,1.59,5.91,1.3,7-1.67.6-1.6.1-4,1.52-6.27s11.16-6.47,7.8-10.54c-3.55-4.31-13.13-2.7-17.18-.32C321.68,267.39,321.08,270.35,321.52,273.54Z"/><path class="d" d="M331.36,270.59a3.18,3.18,0,0,0-3.82,1,2.84,2.84,0,0,0,2.36,4.74,3.92,3.92,0,0,0,2.35-1,2.67,2.67,0,0,0,1-1.51A3.38,3.38,0,0,0,331.36,270.59Z"/></g><g class="c"><path class="e" d="M339,329l.84.41c4.43,1.83,7.56,6.16,7.56,10.05,0,5.11-5.39,8.61-12,8.61s-12-3.5-12-8.61c0-4.48,4-8,8.26-10a5.15,5.15,0,0,0,1.64-1.25,3.9,3.9,0,0,0,.73-1.62,3.62,3.62,0,0,0-1-3.35,4.8,4.8,0,0,1,1.57,1.11,7.88,7.88,0,0,1,1.26,2.13,4.36,4.36,0,0,1,1.32-2.07,3,3,0,0,1,1.61-.61,4.47,4.47,0,0,0-1.18,3A2.77,2.77,0,0,0,339,329Z"/><path class="f" d="M338.41,330.91a11.32,11.32,0,0,1,3.91,5.32,9,9,0,0,1-.26,6.53,7.51,7.51,0,0,1-4.93,4.19"/><path class="f" d="M341.81,332.4a8.88,8.88,0,0,1-.56,13.84"/><path class="f" d="M334.11,329.35a12.76,12.76,0,0,0,.44,17.6"/><path class="f" d="M330.09,332.22A9.36,9.36,0,0,0,332,345.64"/><path class="f" d="M325.34,337.4a6.11,6.11,0,0,0,2.74,5.91"/><path class="f" d="M336.5,331.24a27.63,27.63,0,0,1,2.05,6.84,9.34,9.34,0,0,1-1.57,6.8"/><path class="f" d="M334.74,332.42a15.55,15.55,0,0,0-.06,12.94"/></g><g class="c"><path class="g" d="M261,334.79c1.49,1.44,1.54,2.73,2.88,4.35,2,2.46,1.52,3.59,3.22,6.3a5.77,5.77,0,0,0,3.63,2.53,3.32,3.32,0,0,0,1.95-.15c1.64-.74,2-1.52,3.23-2.8a6.11,6.11,0,0,1,2.61-1.39c1.43-.46,2.93-.65,4.38-1.06a8,8,0,0,0,5.71-5.69c.9-2.68.65-4.49-1.58-7-1.18-1.35-1.46-3.21-2.12-4.87a4.17,4.17,0,0,0-1.39-2,4.06,4.06,0,0,0-1.84-.61,8.53,8.53,0,0,0-4.27.57c-2.05.84-3.69,2.45-5.75,3.27-3,1.21-4.82,1-8,1.54a5.79,5.79,0,0,0-2.49.93,4.09,4.09,0,0,0-.14,6.08Z"/><circle class="g" cx="276.91" cy="333.99" r="4.58"/></g><path class="b" d="M452.75,330.43c.46.71-.83,1.38-1.25,2.48s-.38,1.63.31,1.81,1.91-2,2.22-2.73c.91-2.3.31-3.12,1.29-3.71,1.25-.75,3.41.18,4.32.48A6.7,6.7,0,0,1,463,331c.41.63-1,1.59-1.28,3.91s-.1,3.44.81,3.63,1.39-.38,1.59-1.73c.16-1.06-1-3.32,0-4.16s3.09,1,3.92,2.72c1.61,3.39,1.16,5.18-.07,7.4-2.43,4.4-8.79,6.72-15,4.34-6.35-2.46-9.26-9.5-6.71-14.59C447.85,329.44,451.88,329.07,452.75,330.43Z"/><g class="c"><path class="d" d="M408.69,334.61c-.49-3.64-4.18-8.15-8-10.2-3.34-1.8-7-1.5-8.25,1.85-.68,1.8-.2,4.4-1.8,7s-12.29,7-8.51,11.6c4,4.86,14.92,3.45,19.49.77C408.51,341.54,409.18,338.2,408.69,334.61Z"/><path class="d" d="M407.22,334.79c-.44-3.23-3.71-7.23-7.11-9.05-3-1.59-5.91-1.3-7,1.67-.6,1.59-.1,4-1.52,6.26s-11.16,6.48-7.8,10.55c3.55,4.31,13.13,2.69,17.18.31C407.06,340.94,407.66,338,407.22,334.79Z"/><path class="d" d="M397.38,337.74a3.18,3.18,0,0,0,3.82-1,3,3,0,0,0,0-3.84,3.05,3.05,0,0,0-2.35-.91,4,4,0,0,0-2.35,1,2.71,2.71,0,0,0-1,1.51A3.39,3.39,0,0,0,397.38,337.74Z"/></g><g class="c"><path class="e" d="M389.71,266.05l-.84.4c-4.43,1.84-7.56,6.16-7.56,10.06,0,5.11,5.39,8.61,12,8.61s12-3.5,12-8.61c0-4.48-4-8-8.26-10a5.15,5.15,0,0,1-1.64-1.25,4,4,0,0,1-.73-1.62,3.64,3.64,0,0,1,1-3.36,5.11,5.11,0,0,0-1.57,1.11,8.2,8.2,0,0,0-1.26,2.13,4.38,4.38,0,0,0-1.32-2.06,2.92,2.92,0,0,0-1.61-.61,4.47,4.47,0,0,1,1.18,3A2.77,2.77,0,0,1,389.71,266.05Z"/><path class="f" d="M390.33,268a11.32,11.32,0,0,0-3.91,5.32,9,9,0,0,0,.26,6.53,7.47,7.47,0,0,0,4.93,4.18"/><path class="f" d="M386.93,269.46a8.88,8.88,0,0,0,.56,13.84"/><path class="f" d="M394.63,266.41a12.76,12.76,0,0,1-.44,17.6"/><path class="f" d="M398.65,269.29a9.36,9.36,0,0,1-1.91,13.42"/><path class="f" d="M403.4,274.46a6.11,6.11,0,0,1-2.74,5.92"/><path class="f" d="M392.24,268.3a27.63,27.63,0,0,0-2.05,6.84,9.33,9.33,0,0,0,1.57,6.8"/><path class="f" d="M394,269.49a15.55,15.55,0,0,1,.06,12.94"/></g><g class="c"><path class="g" d="M467.79,273.54c-1.49-1.44-1.54-2.74-2.88-4.35-2-2.47-1.51-3.6-3.22-6.3a5.82,5.82,0,0,0-3.63-2.54,3.32,3.32,0,0,0-1.95.15c-1.64.74-2,1.52-3.23,2.81a6.22,6.22,0,0,1-2.61,1.39c-1.43.46-2.93.64-4.38,1.05a8,8,0,0,0-5.71,5.7c-.9,2.68-.65,4.48,1.58,7,1.18,1.34,1.46,3.21,2.12,4.86a3.5,3.5,0,0,0,3.23,2.6,8.65,8.65,0,0,0,4.27-.58c2.05-.84,3.69-2.45,5.75-3.27,3-1.21,4.82-1,8-1.54a5.79,5.79,0,0,0,2.49-.93,4,4,0,0,0,.62-5.54A4,4,0,0,0,467.79,273.54Z"/><circle class="g" cx="451.83" cy="274.34" r="4.58"/></g><path class="b" d="M388.68,467.28c.46-.71-.84-1.38-1.25-2.48s-.38-1.63.31-1.81,1.91,2,2.22,2.73c.91,2.3.31,3.12,1.29,3.71,1.25.75,3.41-.18,4.32-.48a6.76,6.76,0,0,0,3.34-2.24c.41-.62-1-1.58-1.28-3.9s-.11-3.44.81-3.63c.76-.16,1.39.38,1.59,1.73.15,1.06-1,3.32,0,4.16s3.09-1,3.92-2.73c1.61-3.38,1.15-5.17-.07-7.39-2.43-4.4-8.8-6.72-15-4.34-6.35,2.45-9.27,9.5-6.71,14.59C383.78,468.26,387.81,468.63,388.68,467.28Z"/><g class="c"><path class="d" d="M441.71,456.27c.5-3.63,4.19-8.14,8-10.2,3.34-1.79,7-1.49,8.25,1.86.67,1.79.19,4.4,1.79,7s12.3,7,8.51,11.61c-4,4.86-14.91,3.45-19.48.76C441.9,463.21,441.22,459.86,441.71,456.27Z"/><path class="d" d="M443.18,456.45c.44-3.22,3.71-7.22,7.11-9.05,3-1.59,5.91-1.3,7,1.67.6,1.59.11,4,1.53,6.27s11.15,6.47,7.8,10.54c-3.56,4.31-13.13,2.7-17.18.32C443.35,462.6,442.75,459.63,443.18,456.45Z"/><path class="d" d="M453,459.4a3.18,3.18,0,0,1-3.82-1,3,3,0,0,1,0-3.83,3,3,0,0,1,2.35-.91,3.93,3.93,0,0,1,2.36,1,2.71,2.71,0,0,1,1,1.51A3.35,3.35,0,0,1,453,459.4Z"/></g><g class="c"><path class="e" d="M460.7,387.72l.83.4c4.43,1.83,7.56,6.16,7.56,10.05,0,5.11-5.38,8.61-12,8.61s-12-3.5-12-8.61c0-4.48,4-8,8.25-10a5.18,5.18,0,0,0,1.65-1.26,4,4,0,0,0,.73-1.62,3.62,3.62,0,0,0-1-3.35,4.76,4.76,0,0,1,1.56,1.11,7.78,7.78,0,0,1,1.26,2.13,4.49,4.49,0,0,1,1.32-2.07,3.05,3.05,0,0,1,1.61-.61,4.46,4.46,0,0,0-1.17,3A2.81,2.81,0,0,0,460.7,387.72Z"/><path class="f" d="M460.08,389.65A11.34,11.34,0,0,1,464,395a9,9,0,0,1-.25,6.53,7.54,7.54,0,0,1-4.93,4.19"/><path class="f" d="M463.48,391.13a8.87,8.87,0,0,1-.57,13.84"/><path class="f" d="M455.78,388.08a12.75,12.75,0,0,0,.43,17.6"/><path class="f" d="M451.75,391a9.38,9.38,0,0,0,1.91,13.42"/><path class="f" d="M447,396.13a6.06,6.06,0,0,0,2.74,5.91"/><path class="f" d="M458.17,390a27.6,27.6,0,0,1,2,6.84,9.25,9.25,0,0,1-1.57,6.8"/><path class="f" d="M456.41,391.16a15.47,15.47,0,0,0-.06,12.94"/></g><g class="c"><path class="g" d="M382.61,395.2c1.5-1.44,1.54-2.73,2.88-4.35,2.05-2.46,1.52-3.59,3.23-6.3a5.77,5.77,0,0,1,3.62-2.53,3.28,3.28,0,0,1,2,.15c1.64.74,2,1.52,3.23,2.8a6.07,6.07,0,0,0,2.6,1.39c1.43.46,2.94.64,4.38,1.06a7.93,7.93,0,0,1,5.71,5.69c.91,2.68.65,4.49-1.57,7-1.19,1.35-1.46,3.21-2.12,4.87a4.19,4.19,0,0,1-1.4,2,4.06,4.06,0,0,1-1.84.61A8.53,8.53,0,0,1,399,407c-2-.84-3.69-2.45-5.74-3.28-3-1.2-4.83-1-8-1.53a5.7,5.7,0,0,1-2.49-.93,4,4,0,0,1-.63-5.54A6.17,6.17,0,0,1,382.61,395.2Z"/><circle class="g" cx="398.57" cy="396" r="4.58"/></g><path d="M75.2,272.06a3.2,3.2,0,0,1,4.65-.45c7.8,6.3,20.85,13.65,34.51,13.5,9.15,0,17.4-2.7,23.1-6.9,5.86-4.2,9-9.75,9-15.6,0-6-2.85-10.51-8.56-14.41-5.7-3.75-14.1-6.6-24.3-8.55h-.3c-9.76-1.8-18.31-4.5-24.76-8.85s-10.8-10.5-10.8-18.31,4.35-14.85,11-19.65,15.46-7.65,25.36-7.65c13.8,0,24.15,6.75,32.41,12.15a3.35,3.35,0,0,1,.9,4.65,3.17,3.17,0,0,1-4.5.9c-8.26-5.4-17.26-11.1-28.81-11.1-8.55,0-16.21,2.55-21.46,6.3-5.25,3.9-8.25,9-8.25,14.4.15,5.26,2.55,9.16,7.8,12.76s13,6.15,22.51,7.95h.3c10.5,2,19.8,5,26.7,9.6,6.91,4.5,11.56,11.41,11.56,19.81s-4.8,15.9-11.85,21a46.21,46.21,0,0,1-27,8.26c-16.06-.15-30-8.26-38.71-15.16A3.48,3.48,0,0,1,75.2,272.06Z"/><path class="h" d="M209.78,218.2c19.36,0,34.81,16.8,34.81,36.76s-15.45,36.76-34.81,36.76c-19.2,0-34.81-16.81-34.81-36.76S190.58,218.2,209.78,218.2Zm0,66.31c15,0,27.61-13.2,27.61-29.55s-12.61-29.71-27.61-29.71S182.17,238.6,182.17,255,194.78,284.51,209.78,284.51Z"/><path d="M268.3,221.65a3.6,3.6,0,0,1,7.2,0v40.06a22.66,22.66,0,1,0,45.31,0V221.65a3.65,3.65,0,0,1,3.6-3.6,3.59,3.59,0,0,1,3.75,3.6v40.06a29.93,29.93,0,1,1-59.86,0Z"/><path d="M356.67,276.41a3.57,3.57,0,0,1,5.1-.45c5.1,3.75,13.2,8.55,22.51,8.55a22.17,22.17,0,0,0,14-4.5c3.6-2.4,5.55-5.7,5.55-9s-1.5-5.85-5.25-9c-3.15-2.4-8.4-4.2-15.6-5.4l-.3-.15c-6.61-1.2-12.46-2.7-16.66-5.71a15.35,15.35,0,0,1-8-13.2c0-5.85,3.3-11,8-14.4,4.35-3,10.5-5,18-5,9.45,0,16.2,4.35,21.9,8a3.82,3.82,0,0,1,1.05,5.1A3.6,3.6,0,0,1,402,232.3c-5.4-3.6-10.8-7.35-18-7.35-6,0-10.81,1.65-14,4.2-3,2.4-4.65,5.4-4.65,8.4s1.35,5.1,4.2,7.35c3.3,2.25,8.25,4,15,5.1h.3a51.1,51.1,0,0,1,17.85,6A18.34,18.34,0,0,1,411,271c0,6.15-3.45,11.1-8.4,14.85a30,30,0,0,1-18.3,5.86c-11.86-.15-21.16-5.71-27.16-10.51A3.37,3.37,0,0,1,356.67,276.41Z"/><path d="M209.38,224.94a30.81,30.81,0,1,1-31.24,30.8,31.05,31.05,0,0,1,31.24-30.8m0-5.88a36.68,36.68,0,1,0,37.11,36.68,36.89,36.89,0,0,0-37.11-36.68Z"/><path class="i" d="M243.94,247c-.07-.13.91,2,3.58.67s3.2-5.28.59-10.65-5.84-7.08-8.23-5.69a3,3,0,0,0-1.66,3.51,48.9,48.9,0,0,0-5.37-6.71,6.1,6.1,0,0,0,2.21,1.15c2.16.14,4.64-1.63,8.3-1.27s7.18,6.08,8.25,8.32,2.35,8.19.66,11.51c-.74,1.44-5.12,3.75-5.83,5.12a10,10,0,0,0-.62,3.43C245.74,255.55,244,247,243.94,247Z"/><path class="i" d="M175,265.53c.06.13-1-2-3.61-.55s-3,5.38-.24,10.67,6.06,6.88,8.41,5.41a3,3,0,0,0,1.55-3.56,47.61,47.61,0,0,0,5.58,6.54,6,6,0,0,0-2.25-1.08c-2.16-.07-4.58,1.78-8.25,1.54s-7.37-5.85-8.52-8.06-2.61-8.11-1-11.47c.69-1.47,5-3.92,5.66-5.31a10,10,0,0,0,.51-3.45C172.88,257,175,265.51,175,265.53Z"/></svg>