<svg xmlns="http://www.w3.org/2000/svg" xmlns:xlink="http://www.w3.org/1999/xlink" viewBox="0 0 306.24 306.24"><defs><style>.a{fill:#b3b3b3;}.b{fill:#231f20;}.c{fill:#fcfcfa;stroke-width:3.24px;}.c,.d,.f,.g,.h,.j,.k,.m{stroke:#000;stroke-miterlimit:10;}.d{fill:#f2f2f2;}.d,.f,.g,.h,.j,.k{stroke-width:1.06px;}.e{fill:#fbb03b;}.f{fill:#009f1a;}.g{fill:url(#a);}.h{fill:#f4d8c1;}.i{fill:#c83737;}.j{fill:#fff;}.k{fill:#fef1de;}.l{fill:#8d6935;}.m{fill:none;stroke-width:0.8px;}</style><linearGradient id="a" x1="59.52" y1="70.53" x2="88.78" y2="-9.86" gradientTransform="translate(194.25 183.05) rotate(13.94)" gradientUnits="userSpaceOnUse"><stop offset="0" stop-color="#fff"/><stop offset="1" stop-color="#249400"/></linearGradient></defs><title>Asset 2</title><rect class="a" width="306.24" height="306.24"/><path class="b" d="M68.3,172a1.8,1.8,0,0,1,2.62-.26c4.39,3.55,11.74,7.69,19.43,7.61a22.16,22.16,0,0,0,13-3.89c3.3-2.36,5.07-5.49,5.07-8.78s-1.6-5.92-4.81-8.11-7.94-3.72-13.69-4.82h-.16c-5.49-1-10.31-2.53-13.94-5s-6.08-5.91-6.08-10.3,2.45-8.37,6.16-11.07a24.28,24.28,0,0,1,14.28-4.31c7.77,0,13.6,3.81,18.24,6.85a1.87,1.87,0,0,1,.51,2.61,1.79,1.79,0,0,1-2.54.51c-4.64-3-9.71-6.25-16.21-6.25a21.11,21.11,0,0,0-12.08,3.55c-3,2.19-4.65,5.07-4.65,8.11s1.44,5.15,4.4,7.18,7.34,3.46,12.67,4.47h.16c5.92,1.1,11.15,2.79,15,5.41s6.5,6.42,6.5,11.15-2.7,8.95-6.67,11.82a26,26,0,0,1-15.2,4.65c-9-.09-16.9-4.65-21.79-8.53A2,2,0,0,1,68.3,172Z"/><path class="b" d="M164.34,143.62a2,2,0,1,1,4,0v22.55a12.76,12.76,0,1,0,25.51,0V143.62a2.06,2.06,0,0,1,2-2,2,2,0,0,1,2.11,2v22.55a16.85,16.85,0,1,1-33.7,0Z"/><path class="b" d="M207.75,174.45a2,2,0,0,1,2.87-.26c2.88,2.12,7.44,4.82,12.67,4.82a12.5,12.5,0,0,0,7.86-2.54,6.28,6.28,0,0,0,3.12-5.06c-.08-1.95-.84-3.3-3-5.07-1.78-1.35-4.73-2.37-8.79-3l-.17-.09c-3.71-.67-7-1.52-9.37-3.21a8.64,8.64,0,0,1-4.48-7.43,10.28,10.28,0,0,1,4.48-8.11,17.79,17.79,0,0,1,10.13-2.78c5.32,0,9.13,2.45,12.34,4.47a2.16,2.16,0,0,1,.59,2.87,2,2,0,0,1-2.79.6c-3-2-6.08-4.14-10.14-4.14a12.46,12.46,0,0,0-7.85,2.36,6.21,6.21,0,0,0-2.62,4.73c0,1.69.76,2.87,2.37,4.14a20.69,20.69,0,0,0,8.44,2.87h.17A28.82,28.82,0,0,1,233.68,163a10.33,10.33,0,0,1,4.65,8.45c0,3.46-2,6.25-4.73,8.36a16.89,16.89,0,0,1-10.31,3.29A25.08,25.08,0,0,1,208,177.15,1.9,1.9,0,0,1,207.75,174.45Z"/><path class="c" d="M154.87,165.92a17,17,0,0,1-33.9,0c0-9.36,7.59-26.52,16.95-26.52S154.87,156.56,154.87,165.92Z"/><path class="d" d="M262.17,70.15c-2.66,2.56-2.74,4.86-5.13,7.74-3.64,4.39-2.7,6.4-5.73,11.21a10.34,10.34,0,0,1-6.45,4.51,5.81,5.81,0,0,1-3.48-.27c-2.92-1.32-3.53-2.7-5.75-5A10.91,10.91,0,0,0,231,85.88c-2.54-.82-5.21-1.14-7.79-1.88C217,82.22,214.53,78.28,213,73.87c-1.6-4.77-1.15-8,2.81-12.49,2.1-2.39,2.6-5.71,3.77-8.66a7.39,7.39,0,0,1,2.48-3.52,7.22,7.22,0,0,1,3.27-1.09,15.22,15.22,0,0,1,7.61,1c3.63,1.49,6.56,4.36,10.21,5.82,5.36,2.15,8.58,1.78,14.29,2.74a10.26,10.26,0,0,1,4.43,1.65c3,2.21,3.37,6.92,1.12,9.85A8.78,8.78,0,0,1,262.17,70.15Z"/><circle class="e" cx="233.77" cy="68.73" r="8.15"/><path class="f" d="M257.75,230.29c1.92-4.16,26.16-37,26.16-37s3.71-1,4.26,2.1c-5.5,2.72-24.52,34.25-24.52,34.25"/><path class="g" d="M266.52,190.78l4.15-2.5s5.07,13.06-2.47,29.67c8.2-4,18.43-14.95,25.44-19.07l3,3.65c-24.76,17-32.52,23.69-40.62,38.87-7.61,14.28-9.52,20-9.66,20.38-.48,1.11-2.52,4.72-6,2.62-3.63-2.19-1.71-5.2-.09-7.25,1.23-1.55,9.42-13.59,11.8-17.42C266.85,215.91,270.85,204.88,266.52,190.78Z"/><path class="h" d="M88.36,242.49c-1,7.47-8.59,16.73-16.46,21C65,267.13,57.55,266.51,55,259.63c-1.39-3.68-.4-9-3.69-14.3S26,230.92,33.79,221.5c8.23-10,30.64-7.09,40-1.58C88,228.25,89.37,235.12,88.36,242.49Z"/><path class="i" d="M85.35,242.13c-.91,6.62-7.62,14.84-14.6,18.58-6.09,3.27-12.15,2.68-14.45-3.42-1.23-3.27-.21-8.19-3.13-12.87s-22.91-13.3-16-21.66c7.3-8.85,27-5.53,35.29-.64C85,229.5,86.24,235.59,85.35,242.13Z"/><path class="j" d="M65.13,236.07c2.7-1.46,6-.19,7.85,2A6.16,6.16,0,0,1,73,246a6.26,6.26,0,0,1-4.82,1.87,8.21,8.21,0,0,1-4.85-2,5.63,5.63,0,0,1-2-3.11C60.88,240.5,62.43,237.53,65.13,236.07Z"/><path class="k" d="M78,64.23c-1,1.53,1.88,3,2.81,5.34s.85,3.52-.7,3.92-4.3-4.24-5-5.9c-2-5-.71-6.73-2.9-8-2.82-1.62-7.67.38-9.72,1s-5.75,2.27-7.5,4.83c-.92,1.34,2.16,3.42,2.87,8.41s.24,7.43-1.82,7.84c-1.71.34-3.12-.83-3.57-3.74-.35-2.28,2.15-7.16-.07-9s-6.94,2.09-8.81,5.87C40,82.18,41,86,43.77,90.82c5.46,9.49,19.77,14.5,33.62,9.37,14.28-5.3,20.82-20.5,15.09-31.47C89,62.1,80,61.31,78,64.23Z"/><path class="l" d="M53.34,70.87c-6.29,12.36,1,14.55,7,12.34a32.67,32.67,0,0,0-3-12.25s3.21,9.53-1.29,10.81C50.18,83.44,53.34,70.87,53.34,70.87Z"/><path class="l" d="M78.1,65.82c3.88.93,8.44,6.45,1,11.27-2.8-3.2-4-5.9-4.64-11.36,0,0,3.08,8.84,5.65,7.76C84.1,71.81,78.1,65.82,78.1,65.82Z"/><path class="m" d="M78,64.23c-1,1.53,1.88,3,2.81,5.34s.85,3.52-.7,3.92-4.3-4.24-5-5.9c-2-5-.71-6.73-2.9-8-2.82-1.62-7.67.38-9.72,1s-5.75,2.27-7.5,4.83c-.92,1.34,2.16,3.42,2.87,8.41s.24,7.43-1.82,7.84c-1.71.34-3.12-.83-3.57-3.74-.35-2.28,2.15-7.16-.07-9s-6.94,2.09-8.81,5.87C40,82.18,41,86,43.77,90.82c5.46,9.49,19.77,14.5,33.62,9.37,14.28-5.3,20.82-20.5,15.09-31.47C89,62.1,80,61.31,78,64.23Z"/></svg>