<svg xmlns="http://www.w3.org/2000/svg" xmlns:xlink="http://www.w3.org/1999/xlink" viewBox="0 0 306.24 306.24"><defs><style>.a{fill:#b3b3b3;}.b,.m{fill:none;}.c,.d,.f,.g,.h,.j,.k,.m{stroke:#000;stroke-miterlimit:10;}.c{stroke-width:0.53px;}.d{fill:#f2f2f2;}.d,.f,.g,.h,.j,.k{stroke-width:1.06px;}.e{fill:#fbb03b;}.f{fill:#009f1a;}.g{fill:url(#a);}.h{fill:#f4d8c1;}.i{fill:#c83737;}.j{fill:#fff;}.k{fill:#fef1de;}.l{fill:#8d6935;}.m{stroke-width:0.8px;}</style><linearGradient id="a" x1="304.68" y1="371.36" x2="333.94" y2="290.97" gradientTransform="translate(27.24 -171.7) rotate(13.94)" gradientUnits="userSpaceOnUse"><stop offset="0" stop-color="#fff"/><stop offset="1" stop-color="#249400"/></linearGradient></defs><title>Asset 2</title><rect class="a" width="306.24" height="306.24"/><path d="M58.78,169.27A1.8,1.8,0,0,1,61.4,169c4.38,3.54,11.72,7.68,19.4,7.59a22.21,22.21,0,0,0,13-3.88c3.29-2.36,5.06-5.48,5.06-8.77s-1.6-5.91-4.81-8.1-7.93-3.71-13.67-4.81h-.16c-5.49-1-10.29-2.53-13.92-5s-6.07-5.91-6.07-10.3,2.44-8.35,6.15-11a24.22,24.22,0,0,1,14.26-4.31c7.76,0,13.58,3.8,18.22,6.84a1.88,1.88,0,0,1,.5,2.61,1.78,1.78,0,0,1-2.53.51c-4.64-3-9.7-6.25-16.19-6.25a21,21,0,0,0-12.06,3.55c-3,2.19-4.64,5.06-4.64,8.09s1.43,5.15,4.38,7.17,7.34,3.46,12.66,4.48h.16c5.91,1.09,11.14,2.78,15,5.39s6.49,6.41,6.49,11.14-2.7,8.94-6.66,11.81a25.93,25.93,0,0,1-15.18,4.64c-9-.09-16.87-4.64-21.77-8.52A2,2,0,0,1,58.78,169.27Z"/><path class="b" d="M134.44,139c10.88,0,19.57,9.45,19.57,20.67s-8.69,20.66-19.57,20.66-19.57-9.45-19.57-20.66S123.64,139,134.44,139Zm0,37.28c8.43,0,15.52-7.42,15.52-16.61S142.87,143,134.44,143s-15.52,7.51-15.52,16.71S126,176.27,134.44,176.27Z"/><path d="M167.33,140.93a2,2,0,0,1,4,0v22.52a12.74,12.74,0,1,0,25.48,0V140.93a2,2,0,0,1,2-2,2,2,0,0,1,2.11,2v22.52a16.83,16.83,0,1,1-33.66,0Z"/><path d="M217,171.72a2,2,0,0,1,2.87-.25c2.87,2.1,7.42,4.8,12.65,4.8a12.47,12.47,0,0,0,7.85-2.53,6.27,6.27,0,0,0,3.12-5.06c-.09-1.94-.84-3.29-2.95-5.06-1.77-1.35-4.73-2.36-8.78-3l-.16-.08c-3.72-.68-7-1.52-9.37-3.21a8.62,8.62,0,0,1-4.47-7.42,10.26,10.26,0,0,1,4.47-8.1A17.86,17.86,0,0,1,232.36,139c5.32,0,9.11,2.45,12.32,4.47a2.15,2.15,0,0,1,.59,2.87,2,2,0,0,1-2.78.59c-3-2-6.08-4.13-10.13-4.13a12.37,12.37,0,0,0-7.84,2.36,6.18,6.18,0,0,0-2.61,4.72c0,1.69.75,2.87,2.36,4.13a20.69,20.69,0,0,0,8.43,2.87h.17a28.64,28.64,0,0,1,10,3.38,10.3,10.3,0,0,1,4.64,8.43c0,3.46-1.94,6.24-4.73,8.35a16.83,16.83,0,0,1-10.29,3.29,25,25,0,0,1-15.26-5.9A1.9,1.9,0,0,1,217,171.72Z"/><path d="M134.21,142.78a17.32,17.32,0,1,1-17.56,17.32,17.46,17.46,0,0,1,17.56-17.32m0-3.3a20.62,20.62,0,1,0,20.86,20.62,20.74,20.74,0,0,0-20.86-20.62Z"/><path class="c" d="M153.64,155.16c0-.08.51,1.14,2,.37s1.8-3,.33-6-3.28-4-4.62-3.19a1.68,1.68,0,0,0-.94,2,26.69,26.69,0,0,0-3-3.77,3.36,3.36,0,0,0,1.25.64c1.21.08,2.61-.91,4.66-.71s4,3.42,4.64,4.68,1.32,4.6.37,6.47c-.41.81-2.88,2.11-3.27,2.87a5.49,5.49,0,0,0-.35,1.93C154.65,160,153.64,155.17,153.64,155.16Z"/><path class="c" d="M114.86,165.6c0,.08-.55-1.12-2-.31s-1.7,3-.14,6,3.41,3.87,4.73,3a1.68,1.68,0,0,0,.87-2,25.57,25.57,0,0,0,3.14,3.67,3.3,3.3,0,0,0-1.26-.6c-1.22,0-2.58,1-4.64.86s-4.15-3.28-4.79-4.52-1.47-4.56-.58-6.46c.39-.82,2.81-2.2,3.18-3a5.57,5.57,0,0,0,.29-1.94C113.69,160.81,114.86,165.59,114.86,165.6Z"/><path class="d" d="M260.6,66.44c-2.65,2.56-2.74,4.87-5.12,7.74-3.64,4.39-2.7,6.4-5.74,11.21a10.25,10.25,0,0,1-6.44,4.51,5.92,5.92,0,0,1-3.49-.26c-2.92-1.32-3.53-2.71-5.74-5a11,11,0,0,0-4.64-2.48c-2.54-.81-5.22-1.14-7.79-1.88-6.19-1.77-8.67-5.72-10.16-10.13-1.61-4.76-1.15-8,2.8-12.48,2.11-2.4,2.6-5.72,3.77-8.66a7.53,7.53,0,0,1,2.48-3.53,7.22,7.22,0,0,1,3.28-1.09,15.31,15.31,0,0,1,7.6,1c3.64,1.5,6.56,4.36,10.22,5.83C247,53.4,250.21,53,255.92,54a10.34,10.34,0,0,1,4.43,1.64c3,2.21,3.37,6.93,1.11,9.86A7.76,7.76,0,0,1,260.6,66.44Z"/><circle class="e" cx="232.21" cy="65.02" r="8.15"/><path class="f" d="M256.19,226.58c1.92-4.16,26.15-37,26.15-37s3.72-1,4.27,2.09c-5.5,2.72-24.52,34.26-24.52,34.26"/><path class="g" d="M265,187.07l4.14-2.49s5.07,13.06-2.47,29.66c8.2-4,18.44-14.94,25.44-19.06l3,3.64c-24.77,17-32.52,23.69-40.62,38.87-7.62,14.28-9.52,20.05-9.67,20.39-.47,1.11-2.52,4.72-6,2.62-3.63-2.2-1.71-5.21-.08-7.26,1.23-1.55,9.42-13.58,11.79-17.42C265.29,212.2,269.29,201.17,265,187.07Z"/><path class="h" d="M86.8,238.79c-1,7.47-8.59,16.73-16.46,21-6.86,3.69-14.35,3.07-16.94-3.81-1.39-3.69-.4-9-3.7-14.31s-25.24-14.41-17.48-23.83c8.23-10,30.64-7.08,40-1.57C86.42,224.55,87.8,231.42,86.8,238.79Z"/><path class="i" d="M83.78,238.43c-.9,6.62-7.62,14.83-14.6,18.58-6.08,3.26-12.15,2.67-14.44-3.43-1.24-3.27-.21-8.19-3.13-12.86s-22.91-13.31-16-21.66c7.29-8.86,27-5.54,35.28-.65C83.44,225.8,84.67,231.89,83.78,238.43Z"/><path class="j" d="M63.57,232.37c2.69-1.46,6-.19,7.85,2a6.16,6.16,0,0,1,0,7.88,6.22,6.22,0,0,1-4.82,1.88,8.17,8.17,0,0,1-4.84-2,5.6,5.6,0,0,1-2-3.1C59.31,236.8,60.87,233.82,63.57,232.37Z"/><path class="k" d="M76.43,60.52c-1,1.54,1.89,3,2.82,5.35s.85,3.52-.71,3.91-4.29-4.23-5-5.9c-2-5-.71-6.73-2.9-8-2.81-1.62-7.66.38-9.71,1s-5.75,2.27-7.51,4.83c-.91,1.34,2.16,3.42,2.88,8.42s.23,7.43-1.83,7.84c-1.71.33-3.12-.83-3.56-3.74-.35-2.29,2.15-7.16-.07-9s-6.94,2.1-8.82,5.88c-3.62,7.3-2.59,11.16.17,16,5.46,9.49,19.76,14.49,33.61,9.36C90.1,91.19,96.65,76,90.91,65,87.45,58.4,78.39,57.6,76.43,60.52Z"/><path class="l" d="M51.77,67.17c-6.28,12.36,1,14.54,7,12.33a32.45,32.45,0,0,0-3-12.24s3.21,9.52-1.29,10.8C48.61,79.74,51.77,67.17,51.77,67.17Z"/><path class="l" d="M76.53,62.12c3.88.92,8.44,6.44,1,11.26-2.8-3.19-4-5.89-4.64-11.35,0,0,3.08,8.83,5.64,7.75C82.53,68.11,76.53,62.12,76.53,62.12Z"/><path class="m" d="M76.43,60.52c-1,1.54,1.89,3,2.82,5.35s.85,3.52-.71,3.91-4.29-4.23-5-5.9c-2-5-.71-6.73-2.9-8-2.81-1.62-7.66.38-9.71,1s-5.75,2.27-7.51,4.83c-.91,1.34,2.16,3.42,2.88,8.42s.23,7.43-1.83,7.84c-1.71.33-3.12-.83-3.56-3.74-.35-2.29,2.15-7.16-.07-9s-6.94,2.1-8.82,5.88c-3.62,7.3-2.59,11.16.17,16,5.46,9.49,19.76,14.49,33.61,9.36C90.1,91.19,96.65,76,90.91,65,87.45,58.4,78.39,57.6,76.43,60.52Z"/></svg>