<svg xmlns="http://www.w3.org/2000/svg" viewBox="0 0 87.42 92"><defs><style>.a{fill:#fdd835;}.b{fill:#fff;}</style></defs><title>Asset 26</title><path class="a" d="M29.89,32c-2.69,5-4.67,10.6-4.34,16.28S28.86,59.67,34,62.14c3.89,1.88,8.55,1.68,12.65.3,6.85-2.3,12.61-8,14.35-15s-.92-15.09-6.86-19.22-14.84-3.63-19.89,1.55"/><path class="a" d="M26,29.68C20.45,40.46,17.92,55,28.42,63.83,38.11,72,53,67.19,60.33,58.25c7.23-8.76,7.65-21.88,0-30.54s-21-8.82-29.24-1.16c-4.26,3.94,2.11,10.29,6.36,6.36a11.49,11.49,0,0,1,17.4,2.42A14.72,14.72,0,0,1,53,53c-4.48,5-13.62,8.78-19.31,3.56-6.41-5.87-3.31-15.81,0-22.32,2.65-5.14-5.12-9.7-7.77-4.54Z"/><path class="b" d="M38,12,35,4.5"/><path class="a" d="M42.34,10.81l-3-7.5c-.9-2.26-3-3.84-5.54-3.14-2.14.58-4,3.26-3.14,5.53l3,7.5c.9,2.26,3,3.84,5.54,3.14,2.14-.59,4-3.26,3.14-5.53Z"/><path class="b" d="M49,76l1,11.5"/><path class="a" d="M44.5,76l1,11.5A4.61,4.61,0,0,0,50,92c2.27,0,4.71-2.06,4.5-4.5L53.5,76A4.62,4.62,0,0,0,49,71.5c-2.27,0-4.71,2.07-4.5,4.5Z"/><path class="b" d="M72.48,37.46l10.43-5.62"/><path class="a" d="M74.75,41.35l10.43-5.62c5.1-2.75.56-10.53-4.54-7.78L70.21,33.58c-5.11,2.74-.57,10.52,4.54,7.77Z"/><path class="b" d="M14.5,49l-10,.5"/><path class="a" d="M14.5,44.5,4.5,45A4.61,4.61,0,0,0,0,49.5,4.53,4.53,0,0,0,4.5,54l10-.5A4.59,4.59,0,0,0,19,49a4.55,4.55,0,0,0-4.5-4.5Z"/><path class="b" d="M59.5,17l7-10.5"/><path class="a" d="M63.39,19.28l7-10.5a4.56,4.56,0,0,0-1.62-6.16,4.59,4.59,0,0,0-6.16,1.61l-7,10.5a4.51,4.51,0,0,0,7.78,4.55Z"/><path class="b" d="M17.21,27l-6.42-3"/><path class="a" d="M19.48,23.11l-6.42-3c-2.13-1-5-.67-6.15,1.62-1,2-.67,5.1,1.61,6.15l6.42,3c2.13,1,5,.67,6.15-1.62,1.05-2,.67-5.1-1.61-6.15Z"/><path class="b" d="M74,60.5,82,64"/><path class="a" d="M71.73,64.39l8,3.5c2.22,1,4.83.65,6.16-1.61,1.11-1.91.62-5.18-1.62-6.16l-8-3.5c-2.22-1-4.83-.65-6.16,1.61-1.11,1.91-.62,5.18,1.62,6.16Z"/><path class="b" d="M24,72l-3.5,6.5"/><path class="a" d="M20.11,69.73l-3.5,6.5a4.51,4.51,0,0,0,7.78,4.55l3.5-6.5a4.51,4.51,0,0,0-7.78-4.55Z"/></svg>