<svg xmlns="http://www.w3.org/2000/svg" viewBox="0 0 206.95 202.22"><defs><style>.a{fill:#56b5b8;}.b{fill:#e9a347;}.c{fill:#e57475;}.d{fill:#2c9dce;}.e{fill:#6e2778;}</style></defs><title>Asset 3</title><path class="a" d="M26.59,178.3h0a18.3,18.3,0,0,1,16.7-16.11c28.74-2.34,93.37-12.4,139-55.64a6.66,6.66,0,0,1,9-.11h0S113.69,181.92,26.59,178.3Z"/><path class="b" d="M0,48.86H0c4.5,9.55,14.57,14.25,24.31,11.41,32.25-9.41,106.6-25.06,172.76,5.23,3.62,1.65,7.15,1.32,9.16-2.45l.72-1.21S93.71,8.12,0,48.86Z"/><path class="c" d="M199.12,47.68a33.78,33.78,0,0,0,6,.13C188.78,32.47,150,4.12,84.53,0h0l0,.08C86.66,4,169.42,29,194.22,45.64a12.94,12.94,0,0,0,4.18,1.89Q198.76,47.62,199.12,47.68Z"/><path class="d" d="M24.72,196.89h0c10-9.3,18.72-9.44,28.14-8.06,21,3.07,65.54,7.78,105.62-10,4.82-2.14,5.81-3.15,10.24-.73h0S113.67,215.85,24.72,196.89Z"/><path class="e" d="M49.15,86.52a7.51,7.51,0,0,0,5.14,1.3,2.27,2.27,0,0,0,2.17-1.93c0-1.07-.7-1.51-1.7-1.83-2.79-1-5.22-2.36-4.83-5.48a6.65,6.65,0,0,1,6-5.85,10.53,10.53,0,0,1,4.55.63L59.55,77a7.82,7.82,0,0,0-3.71-.65,2.22,2.22,0,0,0-2.12,2.14c0,1,.83,1.47,1.86,1.8,2.76,1,5.07,2.54,4.69,5.51a6.69,6.69,0,0,1-6.34,5.83,10.8,10.8,0,0,1-5.74-1.15Z"/><path class="e" d="M73.26,75.77c-7.4.25-8.81,11.58-1.42,11.33a9,9,0,0,0,3.71-1V90a12.86,12.86,0,0,1-4.2.92C58.69,91.32,61.08,72.46,73.73,72a8.23,8.23,0,0,1,3.59.6l-.92,3.83A5.67,5.67,0,0,0,73.26,75.77Z"/><path class="e" d="M87.75,90.28l-2.87-7-1.8.06-.89,7.09-3.74.13L80.78,72l7.36-.25c6.67-.23,6.15,9.08.47,10.85L92,90.14ZM83.53,79.77l3.29-.12c2.53-.08,3.05-4.24.52-4.15l-3.29.11Z"/><path class="e" d="M94.47,90.05l2.32-18.58,3.74-.12L98.2,89.93Z"/><path class="e" d="M104.74,71.18l7.39-.25c3.32-.12,5.09,2.18,4.6,5.46a5.49,5.49,0,0,1-2.18,3.72A3.79,3.79,0,0,1,116,83.76a6.73,6.73,0,0,1-6.21,5.77l-7.39.25Zm2.83,7.33,2.24-.08,1.07,0a2.1,2.1,0,0,0,2-1.93,1.45,1.45,0,0,0-1.49-1.82l-3.32.12Zm-.93,7.43,2.24-.08,1.07,0a2.25,2.25,0,0,0,2.12-1.94,1.52,1.52,0,0,0-1.65-1.78l-3.32.11Z"/><path class="e" d="M121,70.63l7.4-.25c3.31-.12,5.08,2.18,4.59,5.45a5.42,5.42,0,0,1-2.18,3.73,3.82,3.82,0,0,1,1.47,3.65A6.73,6.73,0,0,1,126,89l-7.4.25ZM123.79,78l2.25-.08,1.07,0a2.1,2.1,0,0,0,2-1.93,1.44,1.44,0,0,0-1.49-1.81l-3.32.11Zm-.93,7.43,2.25-.08,1.07,0a2.25,2.25,0,0,0,2.11-1.94,1.52,1.52,0,0,0-1.65-1.78l-3.32.11Z"/><path class="e" d="M140.92,70l-1.86,14.87,5.93-.2-.47,3.71-9.66.33,2.32-18.58Z"/><path class="e" d="M147.74,88.24l2.32-18.58,9.36-.32L159,73.06l-5.62.19L152.87,77l4.91-.17-.46,3.72-4.92.16-.46,3.72,5.93-.2-.47,3.71Z"/><path class="e" d="M56.56,127.23l-5.79.19L54.45,98,56,98l12.5,16.42,2-16.27,5.83-.2-3.67,29.37-1.54,0L58.52,111.55Z"/><path class="e" d="M88,113.24,79.89,97.75l7-.24,4.67,9.71,7.16-10.11,7.09-.25L93.75,113l-1.62,13-5.76.19Z"/><path class="e" d="M120.65,101.78c-11.46.39-13.66,18-2.2,17.56a13.86,13.86,0,0,0,5.75-1.47l0,5.93a20.27,20.27,0,0,1-6.51,1.43c-19.65.66-16-28.59,3.66-29.25a13,13,0,0,1,5.57.93l-1.43,6A8.77,8.77,0,0,0,120.65,101.78Z"/></svg>